{"glyphs":{"0":{"ha":524,"x_min":0,"x_max":482,"o":"m 188 -4 q 96 23 140 -4 q 25 101 51 50 q 0 228 0 161 q 8 326 0 278 q 63 558 24 444 q 179 747 103 665 q 243 803 206 776 q 319 829 281 829 l 333 828 q 366 815 347 825 q 385 789 385 806 q 451 725 428 761 q 476 662 469 696 q 482 592 482 628 q 476 500 482 546 q 426 271 465 385 q 319 64 388 157 q 258 13 293 29 q 188 -4 224 -4 m 164 61 q 214 83 188 61 q 251 121 240 106 q 296 193 276 156 q 371 393 344 289 q 399 608 397 500 l 399 625 q 397 667 399 646 q 388 704 396 688 q 332 743 368 742 q 308 721 321 731 q 242 639 271 685 q 161 460 189 556 q 119 239 129 353 l 117 188 q 121 136 117 163 q 130 97 122 122 q 151 64 138 72 l 164 61 z "},"1":{"ha":299,"x_min":0,"x_max":257,"o":"m 88 -11 q 29 7 57 -11 q 1 44 13 18 l 0 47 l 1 50 l 0 76 q 8 170 0 124 q 24 261 17 217 q 58 454 38 358 q 106 657 79 557 q 129 746 115 699 q 49 731 90 731 q 35 735 46 731 q 25 746 25 740 l 28 749 q 178 824 103 786 q 196 835 186 831 q 207 839 201 839 q 246 815 231 839 q 257 761 257 789 q 246 691 257 726 q 225 622 235 656 q 176 421 197 522 q 138 206 154 314 q 127 103 131 156 q 110 1 124 51 q 88 -11 103 -11 z "},"2":{"ha":447,"x_min":0,"x_max":406,"o":"m 240 19 q 179 29 210 19 q 152 42 165 35 q 126 49 139 49 q 104 40 114 49 l 100 36 q 79 29 92 29 q 28 47 56 29 q 0 82 0 64 q 6 97 0 90 q 93 199 56 143 q 164 314 131 256 q 275 549 233 424 q 291 618 281 564 q 301 721 301 672 q 294 774 301 753 q 269 794 288 794 q 256 792 264 794 q 181 694 196 761 q 175 638 175 667 q 169 581 175 608 q 164 576 169 576 q 142 589 154 576 q 125 663 125 621 q 151 767 125 715 q 226 833 178 818 q 257 838 243 838 q 355 793 314 838 q 403 692 396 749 q 406 657 406 674 q 374 493 406 575 q 306 340 343 411 q 160 100 246 214 q 169 97 164 97 q 193 93 183 93 q 234 103 215 93 q 272 124 253 114 q 311 133 290 133 q 339 126 324 133 q 365 111 350 122 q 379 88 379 100 l 379 86 q 332 38 372 54 q 261 21 292 22 l 240 19 z "},"3":{"ha":403,"x_min":0,"x_max":361,"o":"m 149 8 q 71 29 110 8 q 0 128 10 61 l 0 135 q 10 200 0 165 q 46 249 21 235 l 54 250 q 93 231 75 250 q 110 196 110 215 l 106 175 q 97 142 101 160 q 92 108 92 125 l 92 100 q 114 69 96 69 q 160 95 133 69 q 196 139 188 121 q 235 306 235 218 l 235 311 q 225 372 235 338 q 190 406 215 406 q 164 396 178 406 q 151 393 158 393 q 105 408 131 393 q 79 436 79 422 q 86 447 79 443 l 101 456 q 271 681 231 536 q 275 721 275 699 q 270 753 275 738 q 251 775 265 768 q 238 778 244 778 q 176 750 204 778 q 133 681 144 719 q 103 604 121 642 q 99 601 101 601 q 82 613 89 601 l 81 640 q 103 735 81 689 q 171 806 126 782 q 231 818 201 818 q 329 775 285 818 q 361 688 361 736 q 329 568 361 628 q 233 446 293 497 q 296 392 272 424 q 328 274 328 340 q 285 97 328 181 q 149 8 232 8 z "},"4":{"ha":489,"x_min":0,"x_max":447,"o":"m 256 -7 q 197 12 229 -7 q 164 51 164 31 q 168 61 164 56 q 229 364 196 214 q 158 365 194 364 q 116 372 138 365 q 75 378 94 378 l 69 378 q 28 390 56 378 q 0 421 0 403 q 7 435 0 428 q 201 650 106 540 q 301 763 250 707 q 334 794 319 783 q 374 804 349 804 l 388 804 q 400 796 394 804 l 404 797 l 410 794 q 447 756 438 783 l 447 751 q 433 658 447 706 q 406 567 418 611 q 363 388 383 478 q 282 8 318 199 q 256 -7 276 -7 m 139 438 l 225 442 q 247 439 236 442 l 289 604 q 139 438 217 519 z "},"5":{"ha":435,"x_min":0,"x_max":393,"o":"m 101 -1 l 96 -1 q 57 8 78 -1 q 26 33 36 18 q 21 51 21 43 q 44 71 21 68 q 201 142 142 75 q 286 299 261 210 q 299 374 299 335 q 286 430 299 406 q 238 454 274 454 l 235 454 q 160 419 190 451 q 111 351 129 388 q 83 338 103 338 q 29 356 58 338 q 0 392 0 374 l 0 394 q 69 747 14 574 q 106 807 76 785 q 133 813 119 813 q 186 808 161 813 l 251 810 q 368 801 310 810 q 383 794 374 800 q 393 782 393 789 q 388 776 393 781 q 288 758 339 760 q 185 750 236 756 q 169 661 182 706 q 146 574 156 617 q 133 504 139 539 q 196 515 163 515 l 213 514 q 319 476 271 510 q 383 383 367 442 q 388 340 388 361 q 365 227 388 285 q 314 124 343 169 q 101 -1 240 10 z "},"6":{"ha":408,"x_min":0,"x_max":367,"o":"m 160 6 q 81 33 118 6 q 24 97 43 60 q 0 206 0 150 q 8 281 0 243 q 25 356 15 319 q 118 597 57 483 q 185 715 146 653 q 281 811 225 778 q 299 815 289 815 q 343 803 319 815 q 367 771 367 790 l 365 764 q 325 689 353 725 q 275 619 297 653 q 197 474 231 550 l 189 454 l 204 454 q 321 414 267 454 q 357 328 357 376 q 348 263 357 296 q 328 203 339 231 q 283 95 313 151 q 200 14 253 39 q 160 6 181 6 m 154 79 q 192 102 175 82 q 219 139 210 122 q 285 307 267 218 q 292 353 292 331 q 283 387 292 372 q 249 403 274 401 q 215 394 231 403 q 186 372 199 385 q 140 322 161 346 q 117 172 117 246 l 117 156 q 122 106 117 133 q 153 79 128 79 l 154 79 z "},"7":{"ha":390,"x_min":0,"x_max":349,"o":"m 99 21 q 32 60 60 21 q 22 114 22 85 q 30 178 22 146 q 46 240 38 211 q 101 425 69 333 l 108 450 q 79 449 94 449 q 61 456 75 449 q 47 469 47 463 q 50 475 47 472 q 114 493 79 493 l 122 493 q 228 760 163 633 q 146 761 186 760 q 8 781 74 757 q 0 789 0 783 l 0 790 q 48 812 15 810 q 104 814 81 814 q 279 821 192 819 q 321 810 293 821 q 349 779 349 799 l 349 776 q 256 486 317 629 q 288 481 271 486 q 319 447 319 463 q 306 439 319 439 l 297 439 q 239 443 268 442 l 224 401 q 167 214 192 310 q 144 111 151 164 q 140 69 142 89 q 125 32 138 50 q 99 21 115 21 z "},"8":{"ha":433,"x_min":0,"x_max":392,"o":"m 217 11 q 119 38 168 11 q 40 111 71 65 q 0 256 0 179 q 7 318 0 288 q 49 417 18 371 q 139 481 82 465 l 146 482 l 156 481 q 92 631 108 556 q 88 663 88 646 q 131 775 88 729 q 232 821 174 821 q 329 782 281 821 q 377 709 363 750 q 392 624 392 668 q 389 575 392 599 q 364 463 382 517 q 306 368 346 410 q 294 363 301 364 q 333 270 318 318 q 347 171 347 222 l 346 133 q 300 40 336 69 q 217 11 264 11 m 243 447 q 291 557 276 496 q 306 674 306 618 q 290 740 306 706 q 246 775 275 775 q 207 757 229 775 q 175 708 183 738 q 167 650 167 679 l 168 640 q 192 540 171 588 q 243 447 214 492 m 179 85 q 239 126 215 85 q 264 224 264 176 q 241 327 264 276 q 188 428 218 378 q 174 392 183 408 q 142 339 157 365 q 114 229 118 288 l 113 218 q 119 157 113 189 q 146 101 126 125 q 179 85 161 85 z "},"9":{"ha":399,"x_min":0,"x_max":357,"o":"m 131 -4 q 89 3 113 -4 q 6 74 33 22 q 0 107 0 90 q 5 143 0 125 q 14 179 10 161 q 28 188 18 188 q 58 177 42 188 q 75 156 75 167 q 74 124 75 146 q 78 93 74 107 q 93 75 82 79 l 96 75 q 121 104 110 75 q 135 149 132 133 q 181 325 160 238 q 214 476 200 401 q 132 443 178 443 l 126 443 q 37 491 64 449 q 10 586 10 533 q 24 671 10 631 q 81 772 42 724 q 175 821 119 821 q 238 800 204 821 q 297 704 281 768 l 301 704 q 353 660 340 694 q 357 629 357 646 q 348 562 357 597 q 332 497 339 526 q 256 157 301 326 q 233 83 247 119 q 194 21 218 46 q 131 -4 169 -4 m 110 504 q 117 509 113 504 q 133 521 121 514 q 168 543 151 531 q 254 669 231 593 q 247 732 254 704 q 215 760 240 760 q 193 756 206 760 q 140 697 161 740 q 111 619 119 653 q 100 553 100 586 q 106 513 100 532 q 110 504 108 504 z "}," ":{"ha":536,"x_min":0,"x_max":0,"o":""}," ":{"ha":536,"x_min":0,"x_max":0,"o":""},"!":{"ha":594,"x_min":63,"x_max":532,"o":"m 164 -56 q 106 -19 131 -56 q 93 33 93 7 q 98 78 93 56 q 107 122 103 100 q 135 260 119 192 q 211 542 165 404 q 317 814 257 681 q 382 950 347 883 q 413 1010 396 982 q 465 1047 431 1038 l 474 1049 q 504 1040 489 1049 q 526 1018 519 1032 q 532 989 532 1004 q 519 943 532 965 q 494 897 507 921 q 431 761 461 831 q 328 499 372 632 q 250 226 283 364 q 219 68 233 149 q 210 5 215 38 q 182 -50 206 -28 q 164 -56 175 -56 m 129 -318 q 79 -293 100 -318 q 63 -247 63 -274 l 64 -235 q 76 -181 69 -207 q 99 -168 82 -168 q 135 -175 119 -168 q 166 -193 150 -181 q 185 -222 182 -206 l 185 -233 q 176 -285 185 -260 q 140 -317 168 -310 l 129 -318 z "},"\"":{"ha":285,"x_min":63,"x_max":222,"o":"m 78 861 q 68 867 72 861 q 63 900 63 883 q 75 953 63 928 q 110 993 88 979 q 118 994 114 994 q 134 990 125 994 q 143 979 143 986 l 143 978 q 118 917 136 946 q 81 863 104 886 l 78 861 m 175 835 q 151 839 163 835 q 138 849 146 842 q 131 863 131 856 l 131 867 q 151 922 140 893 q 190 967 165 951 l 197 968 q 213 964 204 968 q 222 953 222 960 l 221 950 q 196 901 210 926 q 186 858 186 882 l 188 843 q 175 835 188 833 z "},"#":{"ha":754,"x_min":63,"x_max":692,"o":"m 183 -15 q 131 2 161 -15 q 100 38 100 19 l 100 39 q 132 214 110 128 q 110 215 119 214 q 81 227 99 217 q 63 250 63 238 q 67 261 63 257 q 153 294 101 289 l 183 401 l 151 401 q 113 417 139 403 q 86 444 86 431 q 99 458 86 453 q 210 485 149 478 q 296 658 239 582 q 321 668 307 668 l 328 668 q 344 665 336 665 q 372 646 361 660 q 386 621 386 636 l 386 617 q 342 493 369 553 l 351 493 q 481 496 417 496 q 503 550 490 524 q 536 617 517 586 q 592 663 556 649 l 599 664 q 622 658 610 664 q 636 642 633 651 q 642 610 642 626 q 628 549 642 579 q 601 490 615 519 l 618 490 q 688 449 664 485 q 692 433 692 442 q 668 413 692 417 l 572 417 q 538 306 553 363 q 536 304 536 306 l 575 297 q 613 283 592 294 q 642 254 635 272 l 643 246 q 635 231 643 235 q 615 226 626 226 l 606 226 q 518 236 563 232 q 494 111 503 174 q 490 67 493 99 q 482 29 488 36 q 469 39 482 32 q 478 19 478 31 q 454 0 478 7 l 449 0 q 405 15 429 0 q 378 50 381 29 l 378 71 q 401 240 378 153 q 353 239 376 240 q 254 226 304 236 q 206 -1 226 114 q 183 -15 203 -15 m 278 313 l 374 317 l 421 315 l 442 382 q 453 417 446 400 l 411 417 q 310 410 361 414 q 278 313 293 361 z "},"$":{"ha":647,"x_min":63,"x_max":585,"o":"m 325 -150 q 298 -144 311 -150 q 285 -124 285 -137 l 286 -44 q 246 -58 267 -53 q 204 -64 228 -64 q 128 -47 165 -64 q 72 3 92 -31 q 63 46 63 24 q 83 122 63 85 q 136 171 104 158 l 142 171 q 165 157 154 171 q 179 107 179 135 l 178 89 q 174 21 178 71 q 190 26 182 25 q 251 58 222 39 q 293 88 274 71 q 314 347 301 218 q 268 344 292 344 q 167 372 217 344 q 123 425 136 393 q 110 493 110 457 q 138 628 110 558 q 194 744 167 699 q 269 844 225 796 q 367 918 314 893 q 368 925 368 921 q 376 983 371 956 q 401 1035 382 1011 q 406 1036 404 1036 q 419 1028 414 1036 q 433 944 433 989 l 433 929 q 526 892 479 928 q 571 833 557 867 q 585 758 585 799 q 557 640 585 699 q 486 550 529 582 l 483 549 q 472 556 478 549 q 501 662 481 606 q 522 771 522 718 q 506 839 522 807 q 481 863 497 863 q 461 860 475 863 q 425 840 442 854 q 411 740 417 788 q 385 450 397 596 l 385 444 l 390 444 q 474 428 433 444 q 542 378 514 413 q 567 301 567 342 q 542 203 567 251 q 356 -10 481 72 l 344 -142 l 343 -142 q 325 -150 343 -150 m 365 157 q 417 233 396 193 q 440 283 429 257 q 451 336 451 310 l 450 349 q 444 368 449 368 q 431 365 440 368 q 378 358 406 365 l 365 157 m 232 422 q 322 438 276 431 q 325 479 322 458 q 351 760 338 619 q 321 714 335 738 q 233 497 256 614 q 226 436 231 465 q 228 432 229 436 l 226 422 l 232 422 z "},"%":{"ha":743,"x_min":63,"x_max":681,"o":"m 222 -81 q 166 -65 196 -81 q 136 -26 136 -49 l 139 -17 q 400 681 279 346 q 467 863 428 772 q 326 868 396 864 q 332 813 332 842 q 316 714 332 764 q 269 630 300 664 q 192 596 238 596 q 63 739 74 610 q 99 849 63 796 q 185 931 136 903 q 200 933 190 933 q 256 919 224 933 q 347 929 300 929 q 515 918 433 929 q 558 907 531 918 q 585 875 585 896 q 558 751 581 814 q 517 638 536 689 q 253 -69 388 278 q 243 -75 253 -69 q 222 -81 233 -81 m 169 638 q 182 642 174 638 q 233 681 215 647 q 260 742 251 714 q 272 783 265 761 q 278 825 278 806 q 271 861 278 846 q 198 769 231 817 q 165 661 165 722 l 164 649 q 169 638 164 636 m 544 58 q 469 96 497 58 q 440 181 440 133 q 450 267 440 225 q 467 330 454 299 q 507 378 481 361 q 524 382 514 382 q 571 363 549 382 q 681 211 668 318 q 635 110 681 161 q 544 58 590 58 m 538 122 q 589 170 565 142 q 613 232 613 199 q 581 300 610 272 q 550 219 568 258 q 538 146 538 183 l 538 122 z "},"&":{"ha":617,"x_min":63,"x_max":554,"o":"m 207 -179 q 193 -171 199 -179 q 171 -93 171 -132 q 176 -47 171 -69 q 190 24 181 -14 q 117 72 150 39 q 75 143 88 104 q 63 224 63 182 q 99 374 63 303 q 238 533 150 467 q 108 603 157 542 q 93 656 93 626 q 124 753 93 704 q 186 833 156 801 q 283 915 225 878 l 283 932 q 299 1028 283 982 q 356 1090 314 1075 q 361 1088 358 1090 q 385 1008 385 1053 q 378 954 385 982 q 410 958 393 958 q 433 956 422 958 q 503 920 472 949 q 533 860 533 892 q 489 800 533 826 l 485 799 q 472 807 476 799 q 464 846 467 824 q 451 882 461 868 q 436 875 443 879 q 401 860 418 868 q 290 775 339 828 q 213 640 238 715 q 206 617 206 629 l 208 608 q 225 606 213 606 l 257 607 l 349 606 q 400 588 360 606 q 440 549 440 569 q 431 533 440 540 q 314 442 371 492 q 219 332 257 393 q 181 193 181 271 q 183 153 181 172 q 193 108 185 128 q 224 88 201 88 l 236 89 q 338 167 300 110 q 443 392 408 269 l 443 390 q 471 404 450 404 q 525 388 496 404 q 554 353 554 372 l 554 349 q 498 182 542 265 q 388 46 454 99 q 289 8 342 14 l 289 -6 q 275 -85 289 -43 q 211 -178 265 -147 l 207 -179 z "},"'":{"ha":200,"x_min":75,"x_max":169,"o":"m 124 828 l 117 826 q 85 843 99 826 q 75 864 75 854 l 78 879 q 118 969 85 933 q 129 972 124 972 q 156 964 142 972 q 169 944 169 956 q 154 892 165 918 q 139 835 146 864 q 132 829 138 831 q 124 828 126 828 z "},"(":{"ha":563,"x_min":63,"x_max":593,"o":"m 322 -351 q 285 -340 304 -351 q 254 -315 267 -328 q 108 -72 153 -206 q 63 203 63 61 q 99 472 63 339 q 260 874 150 685 q 374 1024 304 951 q 533 1115 443 1097 l 535 1115 q 569 1107 544 1115 q 593 1086 593 1099 q 590 1079 593 1082 q 531 1024 564 1049 q 468 972 497 1000 q 358 828 404 907 q 211 472 263 658 q 167 163 167 321 q 206 -89 167 32 q 339 -303 246 -210 q 354 -331 354 -318 q 335 -350 354 -343 q 322 -351 329 -351 z "},")":{"ha":636,"x_min":43,"x_max":574,"o":"m 101 -336 l 100 -336 q 67 -328 90 -336 q 43 -307 43 -319 q 46 -299 43 -303 q 106 -244 72 -269 q 168 -192 139 -219 q 278 -47 232 -126 q 424 308 372 121 q 469 619 469 460 q 430 869 469 749 q 296 1083 390 990 q 281 1111 281 1099 q 300 1131 281 1124 l 313 1132 q 350 1121 332 1132 q 381 1096 368 1110 q 528 853 483 986 q 574 578 574 719 q 538 308 574 443 q 375 -93 485 96 q 262 -244 331 -171 q 101 -336 193 -318 z "},"*":{"ha":496,"x_min":63,"x_max":433,"o":"m 200 724 q 172 733 186 724 q 158 753 158 742 q 186 861 163 808 q 107 849 147 849 q 69 853 89 849 q 63 858 65 853 q 110 900 71 886 q 190 922 150 914 q 129 985 154 949 l 128 990 q 139 996 128 997 q 157 993 150 996 q 219 951 189 976 q 242 1015 228 985 q 286 1058 257 1046 l 290 1058 q 310 1047 303 1058 q 318 1011 318 1031 q 303 949 318 981 q 358 956 332 956 q 410 947 386 956 q 433 915 433 932 q 422 906 433 907 l 411 907 l 396 908 q 348 901 374 908 q 301 889 322 894 l 285 885 q 321 844 300 864 q 357 790 346 822 l 358 783 q 344 774 358 774 q 313 782 331 774 q 290 800 296 790 q 263 835 279 822 q 217 731 247 775 q 200 724 211 724 z "},"+":{"ha":590,"x_min":63,"x_max":528,"o":"m 244 128 q 192 144 222 128 q 163 183 163 161 l 163 189 q 215 400 188 296 q 74 432 138 400 q 63 447 63 439 l 64 458 q 73 465 67 464 q 83 467 79 467 q 153 471 118 471 q 232 468 193 471 l 264 582 q 283 637 272 614 q 322 675 293 660 l 332 676 q 372 651 356 676 q 383 608 383 629 q 367 533 383 574 q 347 463 358 499 q 463 451 406 460 q 524 414 501 446 q 528 400 528 407 q 504 382 528 386 q 417 386 461 382 q 329 393 374 390 q 265 140 294 268 q 244 128 261 128 z "},",":{"ha":231,"x_min":63,"x_max":168,"o":"m 118 -60 q 81 -48 100 -60 q 63 -25 63 -36 l 65 -19 q 101 36 90 4 l 103 47 q 100 65 103 58 q 94 79 94 71 l 96 85 q 106 90 100 90 q 129 85 118 90 q 159 61 150 76 q 168 26 168 46 q 138 -53 168 -15 q 118 -60 131 -60 z "},"-":{"ha":553,"x_min":63,"x_max":490,"o":"m 469 372 q 261 378 365 372 l 203 378 q 142 381 172 378 q 83 396 111 383 q 63 415 63 403 l 64 419 q 87 436 74 435 q 118 439 100 438 q 219 444 168 444 l 267 444 q 429 438 349 444 q 488 403 467 433 q 490 389 490 396 q 469 372 490 375 z "},"­":{"ha":553,"x_min":63,"x_max":490,"o":"m 469 372 q 261 378 365 372 l 203 378 q 142 381 172 378 q 83 396 111 383 q 63 415 63 403 l 64 419 q 87 436 74 435 q 118 439 100 438 q 219 444 168 444 l 267 444 q 429 438 349 444 q 488 403 467 433 q 490 389 490 396 q 469 372 490 375 z "},".":{"ha":219,"x_min":58,"x_max":161,"o":"m 131 -18 l 126 -18 q 94 -11 110 -18 q 70 5 82 -6 q 58 29 58 15 l 58 35 l 68 64 q 76 76 71 71 q 97 85 86 85 l 101 86 q 149 64 125 86 q 161 36 160 54 q 157 13 161 26 l 153 -7 q 144 -16 150 -14 q 131 -18 138 -18 z "},"/":{"ha":647,"x_min":63,"x_max":585,"o":"m 139 -201 q 90 -183 117 -201 q 63 -146 63 -165 l 63 -142 q 150 167 94 15 q 254 469 199 319 q 368 768 310 619 q 426 918 397 843 q 496 1063 456 993 q 515 1074 506 1074 q 539 1072 526 1072 q 585 1025 571 1072 l 585 1022 q 575 983 585 1004 q 558 944 565 961 q 522 851 542 899 q 390 515 456 685 q 267 167 325 342 q 161 -189 214 -12 q 139 -201 156 -201 z "},":":{"ha":317,"x_min":101,"x_max":260,"o":"m 222 326 q 185 335 204 326 q 144 376 153 347 q 149 402 144 390 q 157 428 153 414 q 197 458 167 457 q 238 442 219 458 q 260 404 257 426 l 260 399 q 256 369 260 385 q 244 338 251 353 q 222 326 238 326 m 178 39 q 133 51 160 39 q 101 86 106 63 q 108 131 101 110 q 144 168 113 167 q 190 153 167 168 q 217 118 213 139 q 214 90 217 100 q 204 56 211 72 q 178 39 197 39 z "},";":{"ha":285,"x_min":79,"x_max":228,"o":"m 188 308 q 153 317 169 308 q 113 356 124 329 q 117 378 113 369 q 125 399 121 388 q 150 429 129 421 l 161 431 q 224 397 194 431 q 228 383 228 390 l 228 379 q 222 356 228 367 q 210 319 218 336 q 188 308 203 308 m 126 8 q 98 14 117 8 q 79 29 79 19 q 97 49 82 42 q 129 96 129 67 l 129 101 q 114 128 114 118 q 129 136 115 136 q 179 115 161 136 q 197 76 197 94 q 177 32 197 56 q 126 8 157 8 z "},"<":{"ha":511,"x_min":63,"x_max":449,"o":"m 417 97 q 367 111 392 97 q 107 282 246 210 q 81 300 100 285 q 63 329 63 315 q 71 342 63 338 q 246 465 168 392 q 315 546 281 501 q 399 604 350 590 l 404 604 q 426 599 415 604 q 440 585 436 594 q 446 557 446 572 q 415 478 446 515 q 354 414 385 442 q 207 300 288 347 q 432 142 333 236 q 449 115 449 126 q 417 97 449 97 z "},"=":{"ha":551,"x_min":63,"x_max":489,"o":"m 310 453 q 139 465 225 453 q 76 501 100 471 q 74 515 74 510 q 96 533 74 532 q 228 531 161 533 l 250 531 q 324 534 286 531 q 397 538 361 538 l 410 538 q 478 508 446 538 q 489 485 489 497 q 475 468 489 475 q 393 455 436 457 q 310 453 350 453 m 276 263 q 124 274 200 263 q 85 294 108 276 q 63 325 63 311 q 85 338 63 336 q 168 339 126 339 q 253 340 210 339 l 315 342 q 401 335 360 342 q 463 297 440 328 q 465 283 465 290 q 443 265 465 267 q 276 263 363 265 z "},">":{"ha":551,"x_min":63,"x_max":489,"o":"m 139 26 q 88 49 113 26 q 63 90 63 72 q 68 101 63 97 q 67 103 68 101 q 346 325 199 221 q 233 404 286 358 q 188 440 217 417 q 136 492 160 464 q 113 543 113 519 l 114 547 q 128 564 115 558 q 133 565 132 564 l 144 567 q 193 547 169 567 q 310 436 253 489 q 444 344 368 383 q 472 326 454 340 q 489 296 489 311 q 482 282 489 290 q 165 38 315 171 q 139 26 154 26 z "},"?":{"ha":746,"x_min":63,"x_max":683,"o":"m 190 -60 q 129 -32 157 -60 q 113 1 113 -17 l 113 7 q 193 206 139 114 q 318 381 247 297 q 453 551 389 464 q 554 743 518 639 q 576 869 576 806 q 564 950 576 911 q 543 992 556 976 q 506 1008 531 1008 l 488 1006 q 392 964 436 994 q 306 850 331 918 q 281 708 281 782 q 292 597 281 650 l 292 596 q 283 589 292 588 q 256 599 271 589 q 211 670 225 631 q 197 751 197 710 q 235 901 197 828 q 329 1022 272 974 q 468 1074 397 1074 q 591 1034 535 1074 q 671 922 647 994 q 683 831 683 876 q 632 624 683 725 q 515 443 581 524 q 344 213 425 331 q 226 -46 264 96 q 215 -56 224 -53 q 200 -58 207 -58 l 190 -60 m 139 -275 q 76 -243 104 -275 q 63 -212 63 -229 l 63 -210 q 67 -187 63 -197 q 79 -136 69 -161 q 104 -124 90 -124 q 138 -131 124 -124 q 169 -148 153 -136 q 188 -178 185 -160 l 188 -185 q 181 -232 188 -207 q 153 -272 182 -262 q 139 -275 147 -275 z "},"@":{"ha":808,"x_min":63,"x_max":746,"o":"m 356 3 l 347 3 q 222 33 283 3 q 124 115 161 64 q 63 314 63 206 q 95 476 63 397 q 186 610 128 556 q 304 670 239 654 q 436 688 369 686 l 450 688 q 569 674 511 688 q 674 618 628 661 q 728 534 711 583 q 746 432 746 485 l 746 404 q 718 289 742 351 q 643 203 694 226 q 610 197 626 197 q 531 228 567 197 q 481 300 494 258 l 475 290 q 435 228 458 260 q 376 185 411 196 q 347 181 360 181 q 288 204 311 181 q 253 262 264 228 q 242 329 242 296 q 244 360 242 346 q 276 452 253 403 q 338 538 300 501 q 426 574 376 574 l 432 574 q 540 522 497 572 q 546 511 544 518 l 554 515 l 561 517 q 585 509 572 517 q 597 492 597 501 l 597 486 q 583 405 597 444 q 568 325 568 365 q 576 278 568 303 q 599 257 586 257 q 628 272 614 257 q 653 303 643 288 q 692 421 683 358 l 692 443 q 663 553 692 500 q 575 622 635 606 q 508 629 544 629 q 351 603 428 629 q 205 475 254 567 q 156 285 156 383 q 163 219 156 251 q 187 144 169 179 q 234 85 204 108 q 308 63 264 63 q 406 99 369 65 q 482 172 443 132 q 494 176 486 176 q 525 167 508 176 q 542 146 542 157 l 542 144 q 475 43 533 81 q 356 3 417 6 m 351 224 l 350 240 q 417 318 382 278 q 483 460 454 388 l 485 488 q 482 506 485 499 q 471 511 478 511 q 443 497 458 511 q 421 471 428 482 q 343 297 356 397 l 342 275 l 343 253 q 349 231 344 240 l 351 224 z "},"A":{"ha":908,"x_min":0,"x_max":836,"o":"m 597 -301 q 540 -282 568 -301 q 524 -267 532 -276 q 515 -247 515 -258 l 515 -237 l 518 -235 l 519 -224 q 516 -165 519 -196 q 511 -107 513 -135 q 515 57 511 -25 q 526 224 519 140 q 344 183 438 196 q 326 181 338 181 l 243 25 q 163 -123 204 -49 q 69 -261 122 -197 q 56 -267 64 -267 q 19 -253 39 -267 q 0 -226 0 -240 l 0 -222 q 76 -56 29 -137 q 169 104 124 25 q 214 183 190 144 q 110 224 154 193 q 56 314 65 254 l 56 317 q 74 333 56 333 q 120 318 93 333 q 154 292 147 303 q 185 263 167 271 q 225 254 203 254 l 254 257 l 343 418 q 513 744 429 579 q 579 885 544 814 q 671 1008 614 957 q 693 1015 681 1015 q 742 999 717 1015 q 767 964 767 983 l 768 944 q 758 862 768 904 q 739 781 749 819 q 703 596 719 688 q 667 365 683 479 l 706 368 q 775 360 739 368 q 811 342 792 356 q 835 311 831 329 l 836 307 q 808 285 836 285 q 794 286 803 285 q 760 289 779 289 q 654 268 708 289 l 650 238 q 631 -107 631 67 l 631 -133 q 632 -226 631 -179 q 636 -264 636 -243 q 631 -285 636 -274 q 597 -301 618 -301 m 381 283 l 468 307 l 540 332 q 597 692 561 504 q 381 283 485 481 z "},"B":{"ha":989,"x_min":0,"x_max":822,"o":"m 258 -285 q 149 -268 203 -285 q 51 -209 94 -249 q 0 -110 8 -169 l 0 -97 q 35 11 0 -40 q 113 97 69 63 q 164 133 138 118 q 218 513 181 325 q 286 792 247 654 q 325 925 304 857 q 378 1053 346 993 q 408 1068 390 1068 q 465 1048 436 1068 q 494 1004 494 1028 l 493 999 q 408 735 456 867 l 396 689 q 453 810 419 751 q 521 910 481 860 q 614 983 561 960 q 651 990 633 990 q 726 967 690 990 q 781 910 761 943 q 810 803 810 860 q 790 690 810 744 q 631 456 740 557 q 808 289 764 421 q 822 194 822 243 q 778 9 822 99 q 663 -144 733 -81 q 440 -257 565 -229 q 258 -285 350 -285 m 378 411 l 385 415 q 643 671 547 510 q 681 754 665 710 q 697 843 697 799 l 694 875 q 681 921 693 899 q 660 931 672 931 q 610 908 635 931 q 532 821 564 871 q 433 624 469 728 q 378 411 397 521 m 194 -208 q 276 -197 236 -208 q 411 -162 344 -183 q 589 -42 515 -125 q 690 147 663 40 q 704 246 704 194 q 697 310 704 279 q 671 367 689 342 q 613 394 649 394 q 565 386 590 394 q 514 365 539 378 q 432 318 474 339 q 417 315 428 315 q 364 331 394 315 l 343 199 q 446 207 394 207 q 581 193 515 207 q 624 156 624 175 q 607 147 624 147 l 600 147 q 522 151 563 151 q 332 124 426 151 q 299 -53 318 35 q 288 -58 299 -58 l 282 -58 q 279 -75 282 -67 l 275 -85 q 246 -100 267 -100 q 186 -79 219 -100 q 153 -39 153 -58 l 153 -37 q 156 17 153 -10 q 110 -47 131 -10 q 90 -121 90 -85 q 101 -163 90 -143 q 139 -197 113 -183 q 194 -208 165 -208 z "},"C":{"ha":675,"x_min":0,"x_max":613,"o":"m 242 -296 q 104 -235 169 -296 q 23 -85 46 -169 q 0 90 0 0 q 22 314 0 207 q 88 588 44 453 q 211 839 132 722 q 294 940 246 890 q 400 1014 342 990 q 457 1024 428 1024 q 531 1006 496 1024 q 589 954 567 989 q 613 847 613 906 q 597 714 613 779 q 566 586 589 650 q 494 479 543 522 q 488 478 492 478 q 472 483 481 478 q 463 494 463 489 l 463 497 q 517 619 490 557 q 547 765 539 690 q 556 864 556 814 l 554 892 q 547 931 553 910 q 521 961 540 953 l 515 963 q 485 951 501 963 q 460 933 469 940 q 291 729 356 850 q 190 483 226 608 q 140 284 161 388 q 119 78 119 181 q 136 -79 119 -1 q 154 -150 142 -111 q 189 -215 167 -189 q 226 -231 204 -231 q 275 -219 250 -231 q 317 -197 300 -208 q 418 -117 372 -164 q 511 -28 464 -71 q 522 -25 517 -25 q 552 -34 536 -25 q 568 -54 568 -43 l 567 -60 q 485 -167 536 -114 q 370 -258 433 -221 q 242 -296 307 -296 z "},"D":{"ha":849,"x_min":0,"x_max":747,"o":"m 194 -350 l 164 -347 q 44 -287 88 -335 q 0 -169 0 -239 q 4 -124 0 -146 q 26 -47 13 -85 q 21 -32 21 -40 l 21 0 q 32 116 21 57 q 56 231 43 175 q 119 507 86 369 q 194 783 156 646 q 235 921 214 854 q 248 969 240 940 q 269 1021 256 997 q 310 1044 283 1044 l 318 1043 q 365 1017 351 1036 q 378 975 378 999 q 366 910 378 944 q 344 847 354 875 q 281 624 311 736 q 411 847 333 743 q 466 915 435 881 q 538 960 497 950 l 563 963 q 688 906 633 963 q 735 822 722 869 q 747 722 747 775 q 741 627 747 675 q 728 538 735 579 q 639 172 703 350 q 608 110 626 140 q 590 61 600 86 q 551 -17 574 21 q 447 -175 506 -100 q 378 -259 415 -219 q 295 -324 340 -299 q 194 -350 250 -350 m 146 -272 q 203 -251 174 -272 q 249 -215 233 -231 q 436 38 363 -104 q 503 178 479 106 q 556 326 528 253 q 615 635 599 476 q 624 765 624 699 l 622 801 q 620 840 622 819 q 608 876 618 860 q 581 894 597 894 q 532 875 558 894 q 417 755 464 832 q 338 606 369 678 q 206 225 258 419 q 339 355 264 294 q 501 433 414 415 l 504 433 q 535 426 514 433 q 557 406 557 418 l 554 400 q 498 344 529 368 q 435 296 467 319 q 311 181 368 243 q 121 -114 188 53 q 108 -157 115 -131 q 101 -210 101 -183 q 106 -243 101 -228 q 125 -267 111 -258 q 146 -272 136 -272 z "},"E":{"ha":678,"x_min":0,"x_max":718,"o":"m 174 -329 l 157 -329 q 60 -293 94 -324 q 13 -216 26 -262 q 0 -118 0 -169 q 13 8 0 -53 q 95 426 49 217 q 210 838 142 636 q 203 836 207 836 q 104 824 153 824 q 46 832 75 824 q 14 865 14 849 l 13 865 q 83 905 33 896 q 169 919 133 914 q 246 935 207 928 q 274 1004 258 971 q 301 1019 281 1019 q 356 1001 326 1019 q 386 961 386 982 q 529 972 457 972 q 622 965 576 972 q 711 939 668 957 q 718 931 718 938 l 715 928 q 644 910 682 914 q 569 901 606 906 q 389 872 479 890 q 354 865 372 869 q 210 361 271 617 l 261 374 q 334 395 294 383 q 411 407 374 407 q 444 403 428 407 q 479 384 454 400 q 504 354 504 368 q 490 343 504 349 q 310 296 401 319 q 189 269 250 279 q 161 142 174 206 q 122 -75 140 35 q 114 -157 114 -115 l 115 -179 q 122 -231 115 -206 q 131 -251 131 -247 q 129 -254 131 -253 l 133 -254 q 175 -247 151 -254 q 213 -233 199 -239 q 318 -203 267 -219 q 410 -167 363 -186 q 507 -149 458 -149 l 515 -149 q 546 -156 526 -149 q 565 -179 565 -164 l 564 -185 q 477 -249 542 -226 q 368 -282 413 -271 q 272 -313 322 -297 q 174 -329 222 -329 z "},"F":{"ha":592,"x_min":0,"x_max":956,"o":"m 144 -324 q 85 -304 118 -324 q 53 -265 53 -285 q 54 -257 53 -261 q 113 65 75 -93 q 153 257 132 161 l 111 254 l 82 256 q 48 272 72 257 q 24 300 24 286 q 31 310 24 304 q 167 350 96 339 l 175 351 q 185 393 179 372 q 269 729 224 563 l 301 844 q 278 839 290 840 q 175 815 225 829 q 126 803 156 811 q 83 779 97 794 q 65 771 76 771 q 29 783 47 771 q 0 826 0 808 q 36 872 0 854 q 106 899 72 889 q 329 946 215 929 q 381 1028 340 1000 q 399 1032 390 1032 q 434 1022 417 1032 q 457 997 451 1013 q 464 968 463 983 q 697 999 581 986 q 813 1010 753 1010 q 885 999 850 1010 q 946 963 919 989 q 956 944 956 953 q 940 935 956 939 q 508 882 725 918 q 446 871 478 878 q 436 839 440 856 q 392 683 413 761 q 314 383 351 533 q 356 392 332 388 q 404 396 379 396 q 452 387 431 396 q 483 356 474 378 l 485 351 l 482 346 q 314 286 403 301 q 290 281 303 282 q 233 21 260 150 q 169 -308 207 -146 q 144 -324 164 -324 z "},"G":{"ha":772,"x_min":0,"x_max":674,"o":"m 199 -304 l 190 -304 q 106 -282 150 -303 q 31 -227 63 -261 q 0 -153 0 -193 q 26 -86 0 -119 q 113 -22 61 -47 q 215 17 165 3 q 376 42 297 40 q 399 103 389 72 q 431 194 414 149 q 421 188 425 192 q 313 150 369 150 q 235 168 274 150 q 133 263 163 203 q 104 390 104 322 q 126 535 104 461 q 206 747 156 643 q 333 935 257 851 q 524 1022 418 1022 q 592 1006 560 1022 q 649 954 625 990 q 674 849 674 906 q 665 760 674 803 q 639 661 658 708 q 579 579 619 614 q 571 576 575 576 q 544 594 554 576 l 544 596 q 565 694 550 646 q 585 793 579 742 q 588 842 588 817 q 585 889 588 865 q 575 942 585 917 q 557 958 569 958 l 540 956 q 394 835 453 926 q 303 663 336 743 q 235 464 260 567 q 218 346 218 407 q 239 254 218 299 q 296 214 265 214 q 347 229 321 214 q 396 263 372 244 q 460 322 429 290 l 483 346 q 532 435 501 397 q 553 444 539 444 q 599 431 574 444 q 625 399 625 417 l 625 396 q 598 273 625 336 q 550 154 571 210 q 472 -64 515 43 q 410 -176 449 -121 q 319 -267 371 -231 q 199 -304 267 -304 m 140 -228 q 205 -207 172 -228 q 257 -167 238 -186 q 357 -11 324 -99 q 153 -89 249 -36 q 90 -156 108 -112 l 89 -167 q 98 -202 89 -185 q 122 -225 107 -219 q 140 -228 131 -228 z "},"H":{"ha":993,"x_min":0,"x_max":903,"o":"m 633 -335 q 579 -314 608 -335 q 544 -272 550 -293 l 542 -200 q 548 -64 542 -132 q 563 69 554 4 q 596 304 575 188 q 442 269 519 288 q 329 246 386 256 l 254 -119 q 229 -135 249 -135 q 169 -116 203 -135 q 135 -76 135 -97 q 139 -65 135 -69 l 193 224 q 111 215 153 215 q 47 224 81 215 q 17 240 35 228 q 0 265 0 251 q 6 278 0 272 q 49 296 24 293 q 96 300 74 299 q 211 317 154 307 q 338 953 267 638 q 348 963 339 961 q 365 965 357 965 l 376 965 q 390 964 385 964 q 421 947 408 960 q 440 933 429 942 q 451 913 451 924 l 451 910 q 350 344 408 626 q 432 364 392 356 q 614 399 521 386 q 688 701 643 553 q 738 861 711 782 q 765 940 750 900 q 806 1013 781 979 q 832 1022 815 1022 q 879 1009 856 1022 q 903 978 903 996 l 903 975 q 857 815 890 893 q 808 667 832 742 q 742 403 771 536 q 838 385 790 399 q 873 367 850 381 q 896 336 896 353 q 893 326 896 332 l 892 324 q 861 310 878 310 l 850 311 q 756 322 801 322 l 725 321 q 681 14 696 168 q 660 -308 671 -147 q 633 -335 654 -335 z "},"I":{"ha":549,"x_min":0,"x_max":681,"o":"m 88 -315 l 69 -315 l 67 -314 l 58 -312 q 22 -294 39 -307 q 9 -280 18 -290 q 0 -260 0 -269 q 7 -249 0 -253 q 164 -187 82 -214 q 160 -169 160 -179 q 261 406 194 121 q 336 688 294 547 q 404 901 363 794 q 313 890 361 890 l 286 892 q 273 895 281 892 q 263 906 265 899 l 261 917 q 297 963 261 946 q 375 990 333 981 q 439 1006 417 1000 q 504 1022 468 1014 q 575 1031 540 1031 q 630 1021 604 1031 q 674 986 656 1011 q 681 971 681 979 q 675 961 681 967 q 653 946 667 950 l 649 944 q 631 956 639 944 l 639 960 l 624 957 l 606 951 l 533 935 q 543 914 543 925 q 540 904 543 910 q 378 384 440 653 q 283 -154 317 115 q 336 -150 307 -150 q 413 -163 376 -150 q 461 -212 449 -176 l 463 -222 q 439 -239 463 -240 q 399 -231 418 -239 q 381 -226 389 -226 q 344 -233 363 -226 q 311 -246 326 -240 l 214 -279 q 104 -312 160 -297 l 88 -315 z "},"J":{"ha":732,"x_min":0,"x_max":832,"o":"m 233 -310 q 98 -262 161 -310 q 13 -142 35 -214 q 0 -44 0 -94 q 35 129 0 43 q 129 274 69 215 q 235 348 176 317 q 351 404 293 379 q 460 446 403 429 q 563 872 504 661 q 503 848 535 860 q 444 836 472 836 l 421 839 q 392 850 410 842 q 374 872 374 858 l 375 879 q 456 942 397 918 q 557 979 515 967 q 640 1009 597 994 q 726 1024 683 1024 q 779 1015 754 1024 q 813 999 793 1011 q 832 971 832 986 l 832 969 q 817 945 831 953 q 790 931 804 938 l 785 929 q 768 940 775 929 l 789 947 l 753 939 l 696 922 q 701 906 701 917 l 700 900 q 588 442 638 674 q 601 426 601 438 q 596 421 601 425 q 582 415 589 417 q 544 236 561 326 q 483 -30 522 107 q 349 -264 443 -167 q 233 -310 296 -310 m 178 -231 q 221 -217 201 -231 q 256 -185 240 -203 q 332 -64 304 -132 q 378 74 360 4 q 443 360 417 215 q 329 303 385 333 q 216 235 269 272 q 126 139 163 197 q 78 -49 78 50 q 83 -111 78 -79 q 106 -178 89 -144 q 157 -226 124 -212 q 178 -231 168 -231 z "},"K":{"ha":989,"x_min":0,"x_max":947,"o":"m 142 -318 q 83 -299 115 -318 q 51 -260 51 -281 l 54 -250 l 165 169 q 118 217 143 197 q 46 243 81 225 q 17 261 33 250 q 0 289 0 272 l 0 290 q 11 308 1 303 q 31 313 21 313 l 42 311 q 124 286 85 303 l 153 283 q 197 289 174 283 l 222 382 q 304 693 263 539 q 347 854 325 774 q 367 935 357 893 q 397 1011 376 976 q 419 1022 407 1022 l 432 1021 l 446 1021 q 484 996 471 1018 q 497 953 497 974 l 497 947 q 453 771 482 858 l 343 356 q 540 519 451 428 q 634 644 593 578 q 714 778 675 711 l 790 901 q 829 965 808 936 q 889 1001 850 993 l 896 1001 q 923 995 910 1001 q 940 976 936 989 q 947 946 947 961 q 926 882 947 913 q 888 822 906 851 q 790 663 840 742 q 592 403 711 517 q 458 298 529 346 q 308 224 386 250 q 285 138 296 182 q 349 54 315 94 q 444 8 393 8 q 565 51 503 8 q 646 115 607 79 q 729 171 685 150 l 738 172 q 776 151 758 172 q 792 111 792 132 q 769 61 792 85 q 719 18 747 38 q 668 -15 690 -1 q 489 -72 585 -72 q 436 -67 464 -72 q 258 40 331 -42 q 168 -303 213 -132 q 142 -318 163 -318 z "},"L":{"ha":539,"x_min":0,"x_max":497,"o":"m 231 -317 q 203 -315 217 -317 q 52 -224 104 -299 q 0 -58 0 -150 q 1 -22 0 -39 q 56 225 21 103 q 124 486 89 357 q 196 746 158 617 q 231 876 213 807 q 288 997 249 946 q 313 1007 299 1007 q 353 994 333 1007 q 376 963 374 981 l 378 953 q 362 856 378 906 q 331 761 346 807 q 269 553 299 657 q 165 151 214 353 q 117 -68 133 43 l 115 -104 q 124 -175 115 -139 q 158 -233 133 -211 q 190 -244 174 -244 q 258 -218 224 -244 q 314 -172 293 -192 q 381 -110 347 -142 q 456 -61 414 -79 l 463 -60 q 485 -67 474 -60 q 497 -85 497 -75 q 458 -180 494 -135 q 383 -256 422 -225 q 311 -300 350 -283 q 231 -317 272 -317 z "},"M":{"ha":1239,"x_min":0,"x_max":1140,"o":"m 965 -306 q 922 -294 944 -306 q 899 -279 914 -290 q 885 -256 885 -268 l 885 -253 q 868 -211 878 -229 q 856 -158 860 -186 q 853 -106 853 -132 q 857 -25 853 -65 q 896 240 871 108 q 999 753 950 496 q 1010 811 1003 772 q 1018 886 1018 850 q 1013 925 1018 908 q 993 949 1007 942 q 976 951 985 951 q 920 923 949 951 q 870 861 892 894 q 839 808 849 828 q 749 590 781 704 q 689 361 717 476 q 653 201 669 282 q 629 78 640 140 q 614 -41 621 19 q 585 -154 607 -101 q 578 -161 582 -158 q 554 -194 571 -179 q 536 -200 547 -200 q 487 -185 514 -200 q 460 -151 460 -169 l 457 -121 q 463 -74 457 -97 q 475 -26 469 -51 l 504 117 q 560 413 533 265 q 597 693 588 551 l 600 743 l 599 763 l 593 807 q 574 797 582 803 q 526 767 549 785 q 370 557 428 681 q 272 311 313 433 q 189 42 229 176 q 121 -233 151 -94 q 94 -249 115 -249 q 34 -230 68 -249 q 0 -189 0 -211 l 0 -186 q 111 411 46 114 q 185 717 146 564 q 221 854 201 786 q 242 933 231 893 q 275 1006 253 972 q 303 1017 285 1017 q 349 1001 326 1017 q 375 968 372 986 l 375 964 q 352 821 375 893 q 310 681 329 749 l 271 519 q 418 790 325 671 q 485 856 446 825 q 574 892 525 886 l 585 892 q 662 866 626 892 q 711 800 697 840 q 717 778 715 789 q 722 792 721 785 q 770 904 742 846 q 844 999 799 963 q 940 1031 890 1031 q 1077 976 1014 1031 q 1140 844 1140 921 l 1140 838 q 1096 567 1128 701 q 1033 272 1065 419 q 985 -24 1003 125 q 978 -143 978 -85 l 978 -171 q 1004 -283 988 -228 l 1006 -286 q 988 -303 1006 -296 q 965 -306 976 -306 z "},"N":{"ha":906,"x_min":0,"x_max":822,"o":"m 667 -317 l 661 -317 q 612 -302 638 -317 q 575 -267 586 -287 q 542 -97 542 -185 q 546 -15 542 -56 q 583 279 557 135 q 681 790 626 536 q 693 845 686 817 q 700 901 700 874 q 697 929 700 917 q 689 950 696 940 l 683 956 l 685 951 q 681 949 685 950 q 617 918 644 940 q 532 830 568 883 q 465 726 496 776 q 261 290 340 519 q 192 67 222 179 q 126 -156 161 -44 l 122 -187 q 92 -212 117 -212 q 34 -192 65 -212 q 0 -150 3 -171 q 44 138 8 -6 q 126 421 81 282 q 221 708 172 565 q 265 855 243 779 q 321 996 286 931 q 350 1010 332 1010 q 406 992 376 1010 q 435 956 435 975 l 435 953 q 397 810 424 881 q 347 671 371 740 l 340 649 q 513 921 415 793 q 577 992 542 961 q 663 1024 613 1024 l 686 1021 q 821 882 800 996 l 822 860 q 816 801 822 831 q 803 744 810 772 q 775 604 788 675 q 714 282 743 444 q 669 -12 685 136 q 664 -126 664 -68 q 670 -207 664 -167 q 693 -283 676 -247 l 694 -293 q 667 -317 694 -311 z "},"O":{"ha":808,"x_min":0,"x_max":668,"o":"m 264 -335 l 254 -335 q 103 -260 163 -326 q 21 -110 44 -194 q 0 53 0 -28 q 21 261 0 157 q 69 471 39 365 q 153 667 99 576 q 181 681 164 681 q 232 663 206 681 l 232 672 q 286 904 232 796 q 444 1011 349 1011 q 544 982 493 1011 q 624 901 597 950 q 660 796 651 853 q 668 682 668 739 q 651 465 668 572 q 610 250 635 357 q 563 56 589 153 q 493 -133 536 -42 q 440 -225 472 -179 q 363 -303 407 -271 q 264 -335 319 -335 m 515 243 q 521 269 519 256 q 576 617 564 442 l 578 669 q 571 788 578 731 q 558 864 568 822 q 518 928 547 906 q 489 938 504 938 q 432 901 458 938 q 389 821 406 864 q 367 754 372 778 q 351 619 351 686 q 392 415 351 513 q 515 243 433 317 m 225 -261 q 274 -246 250 -261 q 379 -147 338 -211 q 444 -17 421 -83 q 499 174 476 78 q 261 472 322 278 q 239 567 247 518 q 149 268 188 421 q 117 17 117 142 q 121 -61 117 -22 q 164 -204 129 -136 q 204 -257 178 -235 q 225 -261 215 -261 z "},"P":{"ha":826,"x_min":0,"x_max":840,"o":"m 88 -319 q 31 -301 57 -319 q 3 -262 11 -287 l 0 -262 q 44 72 10 -96 q 125 399 78 239 q 238 726 174 565 q 301 876 268 803 q 333 953 315 913 q 383 1017 351 994 q 403 1021 393 1021 q 446 1008 424 1021 q 471 975 468 994 l 471 965 q 451 894 471 931 q 415 824 432 857 q 351 672 382 749 q 275 460 310 567 q 374 653 319 558 q 532 886 440 779 q 669 953 590 953 q 721 944 694 953 q 809 881 778 926 q 840 779 840 836 l 840 775 q 811 635 838 703 q 756 503 785 567 q 611 272 703 374 q 401 142 524 181 q 285 118 343 118 q 235 125 260 118 q 208 25 221 75 q 165 -128 188 -50 q 121 -260 151 -196 l 115 -299 q 88 -319 108 -319 m 258 201 q 317 217 288 207 q 440 279 383 239 q 613 486 553 361 q 725 763 688 618 q 732 825 732 790 q 726 865 732 847 q 704 889 721 883 l 689 892 q 622 860 654 892 q 572 804 590 829 q 293 300 397 572 q 258 201 274 251 z "},"Q":{"ha":821,"x_min":0,"x_max":758,"o":"m 665 -360 q 619 -344 640 -360 q 482 -165 538 -269 q 382 -286 440 -235 q 242 -336 317 -336 q 63 -250 140 -336 q 14 -144 28 -203 q 0 -22 0 -85 q 17 150 0 69 q 74 366 33 257 q 193 550 115 475 q 211 556 201 556 q 253 541 231 556 q 275 510 275 526 l 275 506 q 239 405 261 453 q 197 307 217 357 q 142 121 164 217 q 126 -42 126 40 l 128 -87 q 135 -177 128 -125 q 175 -254 143 -229 q 211 -264 190 -264 q 283 -242 246 -264 q 343 -203 321 -221 q 442 -83 401 -151 q 369 103 400 10 q 313 307 335 201 q 290 518 290 413 q 294 597 290 558 q 337 789 303 696 q 443 953 371 882 q 613 1022 521 1022 q 685 1006 651 1022 q 739 950 718 989 q 758 856 758 906 q 751 763 758 808 q 724 549 740 654 q 599 92 681 315 q 542 -53 575 22 q 615 -203 575 -129 q 676 -347 660 -271 l 676 -350 q 665 -360 676 -360 m 506 36 q 600 285 564 158 q 676 675 653 476 q 690 867 688 769 l 690 882 q 682 936 690 911 q 654 954 671 954 q 627 948 640 954 q 603 936 614 942 q 496 822 533 894 q 439 674 458 749 q 415 481 415 579 q 431 306 415 393 q 506 36 454 168 z "},"R":{"ha":756,"x_min":0,"x_max":683,"o":"m 90 -301 q 32 -278 64 -301 q 0 -236 0 -254 l 1 -231 q 65 179 22 -25 q 25 239 25 200 q 31 264 25 250 q 51 289 38 282 q 82 296 65 296 l 92 296 l 119 406 q 215 726 161 568 q 272 883 242 806 q 299 959 283 921 q 347 1018 315 997 q 367 1022 357 1022 q 404 1010 386 1022 q 428 981 422 997 l 431 960 q 415 893 431 926 q 388 829 400 860 l 388 826 q 421 868 403 847 q 467 919 442 896 q 528 946 492 943 l 535 946 q 638 897 592 946 q 673 838 663 872 q 683 765 683 804 q 647 606 683 682 q 576 465 614 532 q 481 339 539 397 q 339 226 413 278 q 254 172 300 196 q 363 47 304 108 q 500 -39 422 -14 q 540 -44 522 -44 q 592 -36 565 -44 q 615 -31 603 -31 l 624 -32 q 682 -96 674 -44 q 674 -111 682 -106 q 594 -129 636 -129 q 466 -100 531 -129 q 354 -36 401 -71 q 221 88 281 18 l 185 131 q 118 -276 146 -72 q 90 -301 111 -301 m 218 283 q 264 315 242 299 q 428 464 356 379 q 490 553 460 504 q 531 651 519 601 q 553 739 540 694 q 565 828 565 783 l 565 846 q 546 888 567 878 l 544 888 q 515 876 532 888 q 488 857 497 865 q 410 771 442 821 q 317 599 354 689 q 281 511 297 556 q 240 371 260 442 q 218 283 228 328 z "},"S":{"ha":807,"x_min":0,"x_max":843,"o":"m 128 -314 q 93 -310 110 -314 q 32 -280 58 -301 q 1 -222 6 -258 l 1 -214 q 26 -131 1 -169 q 81 -60 51 -93 q 200 69 135 10 q 446 250 314 174 q 419 254 435 254 q 342 239 385 254 q 274 215 299 224 q 175 199 225 199 q 103 213 140 199 q 24 278 47 238 q 0 368 0 319 q 28 494 0 431 q 238 825 106 675 q 361 946 290 892 q 521 1008 432 1000 l 538 1008 q 652 971 603 1008 q 701 868 701 933 l 699 840 q 635 665 678 750 q 525 533 600 582 q 515 532 522 532 q 483 540 501 532 q 465 558 465 547 l 468 564 q 585 754 538 653 q 618 864 610 807 q 621 899 621 881 q 614 929 621 918 q 594 938 606 938 q 574 935 586 938 q 388 817 468 907 q 251 639 308 728 q 140 442 185 547 q 113 342 119 393 l 111 319 q 118 288 111 303 q 132 275 126 275 q 156 279 140 275 q 269 309 213 293 q 382 325 326 325 q 513 285 449 325 l 522 290 q 710 364 613 333 q 775 376 744 376 q 839 347 811 376 q 843 335 843 342 q 839 325 843 331 q 836 321 839 324 q 822 317 831 317 q 790 325 808 317 q 746 310 763 315 q 692 290 719 301 q 599 251 644 272 l 563 235 q 586 146 586 192 q 573 66 586 107 q 539 -11 560 25 q 264 -271 440 -181 q 198 -301 232 -287 q 128 -314 164 -314 m 64 -239 q 97 -232 76 -239 q 192 -189 147 -218 q 321 -92 263 -149 q 386 -18 350 -62 q 450 79 422 26 q 478 181 478 132 l 478 190 l 406 149 q 230 13 315 92 q 92 -158 144 -65 q 76 -190 82 -174 l 76 -196 q 60 -237 76 -218 l 64 -239 z "},"T":{"ha":601,"x_min":0,"x_max":1040,"o":"m 329 -308 l 321 -308 q 274 -291 297 -306 q 246 -253 251 -276 q 229 -76 229 -165 q 248 149 229 36 q 288 369 267 261 q 357 685 318 528 q 417 919 383 801 q 300 901 358 911 q 190 874 244 890 q 79 850 135 857 l 78 850 q 33 866 65 850 q 0 900 0 882 q 8 914 0 907 q 117 959 53 946 q 235 981 181 972 q 467 1011 350 999 q 674 1035 569 1022 q 881 1049 778 1049 q 965 1046 925 1049 q 1010 1029 985 1043 q 1040 994 1036 1015 l 1040 990 q 1031 972 1040 976 q 1011 967 1022 967 l 1000 968 l 947 971 q 758 956 854 971 l 553 935 q 517 792 539 863 q 476 651 494 721 q 408 347 438 500 q 365 121 385 236 q 346 -110 346 6 q 363 -287 346 -199 l 361 -287 q 329 -308 361 -308 z "},"U":{"ha":788,"x_min":0,"x_max":764,"o":"m 250 -331 l 239 -331 q 53 -221 125 -331 q 12 -118 24 -172 q 0 -8 0 -64 q 15 148 0 69 q 49 300 31 226 q 125 601 82 450 q 231 893 168 753 q 258 907 240 907 q 310 889 282 907 q 339 850 339 871 l 339 843 q 251 561 296 701 q 171 276 206 421 q 133 120 151 203 q 115 -44 115 38 q 146 -201 115 -128 q 169 -240 157 -226 q 201 -254 182 -254 q 233 -247 217 -254 q 325 -172 290 -224 q 432 31 393 -76 q 571 513 525 264 q 619 771 599 640 l 640 910 q 646 964 643 936 q 664 1013 649 992 q 689 1021 672 1021 q 731 1011 708 1021 q 760 983 754 1001 q 764 942 764 963 q 757 878 764 911 q 746 815 750 846 q 714 650 731 732 q 642 322 683 485 q 557 47 607 183 q 429 -211 507 -89 q 354 -293 399 -260 q 250 -331 310 -326 z "},"V":{"ha":574,"x_min":0,"x_max":733,"o":"m 83 -331 q 28 -314 57 -331 q 0 -275 0 -297 l 0 -274 q 35 343 14 35 l 58 647 q 69 796 63 719 q 103 940 75 872 q 122 951 110 951 q 163 937 142 951 q 188 908 183 922 q 194 822 194 867 q 187 706 194 764 q 174 590 179 647 q 169 528 172 558 q 157 488 165 508 q 160 457 160 472 l 160 444 q 150 297 160 372 q 126 -103 138 97 q 186 22 158 -42 q 336 375 265 197 q 468 714 401 543 q 633 1036 535 885 q 656 1049 638 1049 q 706 1035 678 1049 q 733 1006 733 1022 q 729 994 733 1000 q 561 676 624 847 q 419 325 492 501 q 268 -35 343 146 q 114 -318 211 -186 q 83 -331 103 -331 z "},"W":{"ha":1213,"x_min":0,"x_max":1099,"o":"m 689 -326 q 543 -254 608 -326 q 496 -149 510 -208 q 475 -32 482 -89 q 463 142 463 54 q 381 -21 428 57 q 317 -97 354 -65 q 226 -136 279 -129 l 211 -137 q 126 -114 168 -137 q 56 -56 85 -90 q 10 44 21 -10 q 0 154 0 99 l 0 176 q 38 429 6 306 q 124 685 72 560 q 178 810 149 750 q 246 913 200 871 q 265 918 253 918 q 303 906 285 918 q 325 876 322 893 l 325 865 q 301 769 325 818 q 257 676 276 719 q 183 488 217 583 q 135 305 154 397 q 117 118 117 213 q 118 64 117 92 q 126 7 119 38 q 148 -46 133 -24 q 189 -68 163 -68 q 228 -57 206 -68 q 300 15 272 -29 q 350 104 328 60 q 438 297 399 199 q 469 396 456 344 q 506 492 483 447 l 510 507 q 522 565 515 532 q 544 623 529 597 q 588 649 560 649 q 613 643 600 649 q 642 628 625 639 q 664 601 660 618 q 656 583 664 588 q 643 529 649 553 l 624 453 q 596 308 607 382 q 581 108 581 208 l 582 38 q 628 -224 583 -97 q 637 -241 633 -235 q 646 -247 640 -247 q 664 -242 653 -247 q 707 -217 686 -231 q 781 -121 753 -175 q 935 285 885 71 q 985 717 985 499 q 972 936 985 828 l 972 939 q 997 957 972 958 q 1053 940 1022 957 q 1089 900 1085 924 q 1099 713 1099 807 q 1056 300 1099 507 q 986 47 1029 174 q 876 -190 943 -79 q 814 -270 850 -235 q 729 -321 778 -306 q 689 -326 710 -326 z "},"X":{"ha":942,"x_min":0,"x_max":1031,"o":"m 92 -337 q 33 -315 65 -337 q 0 -275 0 -293 q 8 -261 0 -267 q 282 -44 158 -168 q 508 222 406 79 q 488 315 496 268 q 451 661 453 485 q 460 832 451 747 q 469 922 464 876 q 481 961 474 940 q 488 1000 488 982 q 508 1019 488 1021 q 557 1003 531 1019 q 589 969 583 986 q 592 935 592 954 q 585 869 592 903 q 576 806 579 835 q 568 633 568 719 q 592 344 568 488 q 768 633 685 486 q 863 821 818 725 q 899 917 881 867 q 953 1004 918 968 q 969 1010 961 1010 q 1007 997 988 1010 q 1029 969 1026 983 q 1031 944 1031 957 q 1011 849 1031 897 q 972 760 992 801 q 876 572 929 664 q 660 222 776 392 l 628 178 q 838 -297 699 -74 q 846 -318 846 -310 q 819 -333 846 -335 q 776 -324 800 -333 q 740 -300 751 -314 q 551 76 619 -125 q 115 -325 369 -162 q 92 -337 108 -337 z "},"Y":{"ha":782,"x_min":0,"x_max":797,"o":"m 163 -349 l 160 -349 q 51 -314 103 -349 q 0 -224 0 -279 q 24 -143 0 -182 q 76 -75 49 -104 q 237 49 143 -3 q 431 108 331 100 q 500 356 472 231 q 429 285 471 313 q 331 257 388 257 q 175 342 229 260 q 148 429 154 381 q 142 524 142 478 q 264 1006 143 786 q 289 1018 272 1018 q 335 1003 311 1018 q 358 968 358 988 l 357 963 q 313 811 336 888 q 274 658 290 735 q 257 499 257 581 q 264 404 257 451 q 274 356 267 381 q 286 329 286 338 l 283 328 q 297 325 289 325 q 331 333 313 325 q 360 346 349 340 q 488 477 442 392 q 567 647 535 563 q 614 785 597 715 q 651 915 629 844 q 711 1035 672 985 q 731 1043 717 1043 q 772 1031 750 1043 q 797 1003 794 1019 l 797 993 q 787 924 797 958 q 765 857 776 889 q 638 404 692 628 q 576 154 610 279 q 481 -85 542 29 q 351 -258 433 -174 q 163 -349 268 -342 m 115 -271 q 186 -240 153 -264 q 244 -192 219 -217 q 399 26 343 -99 q 238 -63 314 -12 q 124 -197 163 -114 q 110 -250 110 -222 l 110 -254 l 115 -271 z "},"Z":{"ha":893,"x_min":0,"x_max":965,"o":"m 90 -333 q 32 -314 64 -333 q 0 -276 0 -294 q 8 -261 0 -268 q 31 -244 19 -251 q 152 -115 100 -190 q 247 36 204 -40 q 432 369 336 204 q 603 633 514 503 q 774 897 692 764 q 567 843 675 865 q 389 778 465 825 q 274 632 313 732 q 258 622 269 622 q 228 634 244 622 q 208 657 211 646 l 206 683 q 239 783 206 740 q 322 856 272 826 q 422 900 372 885 q 639 950 531 928 q 856 1039 754 981 q 875 1043 863 1043 q 933 1028 900 1043 q 965 990 965 1014 l 963 979 q 754 636 868 801 q 536 300 640 471 q 342 -50 440 126 q 235 -211 294 -132 q 319 -220 276 -215 q 403 -225 363 -225 q 607 -179 510 -222 q 697 -126 653 -158 q 767 -69 731 -106 q 765 -64 765 -65 l 764 -60 q 773 -44 764 -49 q 792 -39 782 -39 l 810 -40 q 854 -58 831 -44 q 883 -96 878 -72 l 883 -101 q 858 -151 883 -126 q 803 -195 833 -176 q 751 -225 772 -214 q 558 -294 661 -276 q 461 -303 510 -303 q 333 -293 397 -303 q 244 -286 289 -286 q 129 -315 182 -286 l 111 -328 q 90 -333 103 -333 z "},"[":{"ha":607,"x_min":63,"x_max":626,"o":"m 183 -357 l 149 -356 q 93 -340 124 -354 q 63 -299 63 -326 l 64 -292 q 219 376 136 43 l 299 710 q 335 878 317 793 q 386 1040 354 963 q 396 1049 389 1046 q 408 1051 403 1051 q 581 1049 494 1051 q 607 1036 588 1049 q 626 1015 626 1024 q 618 1010 626 1011 q 483 988 550 997 q 455 826 475 907 q 415 667 435 746 l 336 333 q 192 -276 267 28 l 244 -268 q 260 -267 251 -267 q 326 -293 297 -267 q 343 -326 343 -310 q 328 -342 343 -336 q 183 -357 257 -357 z "},"\\":{"ha":647,"x_min":63,"x_max":585,"o":"m 139 1003 q 161 990 156 1003 q 267 635 214 814 q 390 286 325 460 q 522 -50 456 117 q 558 -143 542 -97 q 575 -183 565 -161 q 585 -222 585 -204 l 585 -224 q 539 -271 571 -271 q 515 -272 526 -271 q 496 -261 506 -272 q 426 -117 456 -192 q 368 33 397 -42 q 254 332 310 182 q 150 635 199 482 q 63 943 94 788 l 63 946 q 90 985 63 967 q 139 1003 117 1003 z "},"]":{"ha":689,"x_min":63,"x_max":626,"o":"m 281 -342 q 108 -339 193 -342 q 82 -327 101 -339 q 63 -307 63 -315 q 71 -300 63 -303 l 206 -278 q 234 -117 214 -197 q 274 42 254 -37 l 353 376 q 497 986 422 682 q 453 979 476 982 q 443 978 447 978 q 444 976 443 978 l 431 975 q 363 1003 393 975 q 346 1036 346 1018 q 360 1051 346 1047 q 504 1067 433 1067 l 540 1065 q 596 1050 565 1064 q 626 1008 626 1036 l 625 1001 q 469 333 554 667 l 390 -1 q 353 -169 372 -85 q 303 -331 335 -253 q 281 -342 292 -342 z "},"^":{"ha":413,"x_min":60,"x_max":350,"o":"m 324 700 q 280 714 304 700 q 250 742 256 728 q 231 872 235 806 l 228 917 q 179 826 196 863 q 128 746 158 783 q 96 732 119 732 l 86 732 q 63 753 60 732 q 75 795 63 772 q 92 825 88 818 l 158 929 q 187 965 169 946 q 210 1001 204 983 q 228 1011 215 1011 q 261 1003 247 1011 q 331 906 322 974 q 343 827 336 868 q 350 746 350 786 l 349 719 q 324 700 344 700 z "},"_":{"ha":821,"x_min":63,"x_max":758,"o":"m 735 -40 l 732 -40 q 417 -32 575 -32 l 340 -31 l 200 -33 q 113 -22 157 -33 q 83 -6 103 -19 q 63 21 63 7 q 69 32 63 28 q 105 45 85 42 q 144 49 125 49 l 193 47 l 356 47 q 671 38 513 46 q 751 0 718 36 q 758 -19 758 -8 q 735 -40 758 -36 z "},"`":{"ha":231,"x_min":63,"x_max":168,"o":"m 114 736 q 93 746 101 736 q 63 836 63 790 q 75 888 63 864 q 117 928 88 911 q 144 938 131 938 l 151 936 q 160 926 160 933 q 154 917 160 922 q 135 864 135 892 q 164 782 135 822 l 167 781 l 168 776 q 150 751 168 767 q 114 736 132 736 z "},"a":{"ha":567,"x_min":-50,"x_max":632,"o":"m 354 10 q 319 14 338 10 q 199 138 224 43 q 192 189 193 161 q 174 158 183 174 q 135 87 157 126 q 76 35 113 47 l 58 32 q -26 74 11 32 q -50 146 -50 108 q -40 211 -50 179 q -5 297 -31 249 q 59 383 21 346 q 143 421 97 421 q 167 418 156 421 q 226 361 213 404 l 235 376 q 250 385 240 385 q 278 374 263 385 q 294 353 294 364 l 296 329 q 291 258 296 294 q 286 186 286 222 l 286 164 q 296 99 286 131 q 325 71 307 71 q 358 83 340 71 q 471 199 424 131 q 564 322 518 260 q 582 329 569 329 q 615 321 597 329 q 632 300 632 313 l 629 293 q 494 94 575 185 q 433 35 467 60 q 354 10 399 10 m 40 90 l 50 93 q 87 135 69 103 q 115 186 104 167 q 204 321 161 253 l 204 325 l 197 353 q 179 378 194 378 q 167 375 174 378 q 128 347 142 372 q 40 174 64 271 q 32 119 32 147 l 32 113 q 40 90 31 90 z "},"b":{"ha":529,"x_min":-53,"x_max":574,"o":"m 99 -182 q 74 -179 86 -182 q 9 -144 28 -169 q -10 -85 -10 -118 q 6 -14 -10 -51 q -35 6 -17 -7 q -53 33 -53 19 l -53 38 q 33 546 -15 292 q 88 797 58 672 q 121 928 101 864 q 185 982 135 981 q 206 972 196 982 q 221 954 217 963 q 232 911 232 935 q 222 847 232 878 q 164 574 192 710 q 118 350 139 461 q 165 412 138 385 q 224 443 192 439 l 235 443 q 315 398 293 443 q 336 294 336 353 l 335 274 q 526 331 432 313 l 531 331 q 558 321 542 331 q 574 303 574 311 q 565 296 574 299 q 331 217 444 269 q 314 126 321 160 q 214 -99 283 4 q 165 -158 192 -133 q 99 -182 138 -182 m 75 103 q 90 119 83 113 q 225 219 151 178 q 242 303 236 261 l 247 353 l 250 374 q 235 388 250 386 l 232 388 q 184 352 210 388 q 139 276 158 317 q 111 217 119 236 q 78 118 90 168 q 75 103 75 111 m 57 -111 q 86 -83 74 -100 q 142 3 119 -43 q 204 143 179 69 q 157 106 179 125 q 85 25 118 72 q 53 -75 53 -22 l 53 -90 q 57 -111 53 -100 z "},"c":{"ha":449,"x_min":-32,"x_max":485,"o":"m 139 -6 q 30 35 79 -6 q -29 140 -19 75 l -32 169 q 21 333 -32 256 q 71 399 42 368 q 143 429 100 429 q 217 393 192 429 q 243 314 243 357 q 208 225 243 264 l 206 224 q 194 231 200 224 l 196 232 q 203 274 197 249 q 208 321 208 299 q 194 365 208 349 q 179 372 188 372 q 146 347 161 372 q 122 304 131 321 q 85 224 101 268 q 69 138 69 181 q 78 86 69 111 q 121 53 92 53 q 238 110 168 53 q 367 228 308 167 q 446 314 425 289 q 454 318 449 318 q 485 294 474 318 l 483 290 q 360 133 426 214 q 207 8 293 51 q 139 -6 172 -6 z "},"d":{"ha":568,"x_min":-46,"x_max":581,"o":"m 299 -310 q 253 -295 276 -310 q 222 -257 229 -281 q 213 -168 213 -214 q 221 -66 213 -117 q 239 33 229 -15 q 307 315 269 175 l 303 307 q 182 82 256 189 q 135 20 160 49 q 75 -8 111 -8 q 40 -1 61 -8 q -26 57 -6 19 q -46 139 -46 94 q -18 264 -46 201 q 50 365 10 326 q 169 418 103 418 q 225 407 197 418 q 268 376 251 394 q 331 524 299 451 q 407 676 365 599 q 489 892 436 790 q 508 903 494 903 q 555 888 529 903 q 581 858 581 874 l 581 857 q 550 713 571 783 q 507 572 529 643 q 429 297 467 436 q 361 21 393 160 q 333 -142 342 -60 l 333 -236 q 331 -290 333 -262 q 329 -289 331 -287 q 299 -310 329 -306 m 69 42 q 74 54 69 44 q 135 119 108 81 q 182 197 161 158 q 247 329 217 261 q 240 346 244 339 q 231 356 235 356 l 217 351 q 156 314 181 342 q 78 176 97 256 q 68 99 68 139 l 69 42 z "},"e":{"ha":408,"x_min":-25,"x_max":454,"o":"m 136 33 l 129 33 q 15 91 56 42 q -25 204 -25 140 q -1 294 -25 250 q 56 369 21 335 q 138 411 92 403 l 150 413 q 208 397 179 413 q 244 351 236 381 q 247 331 247 342 q 201 251 247 286 q 107 217 156 217 q 89 218 99 217 q 86 210 89 214 q 78 161 78 186 q 94 107 78 132 q 126 92 108 92 q 185 113 154 92 q 235 149 215 133 q 407 304 331 217 q 417 307 411 307 q 441 299 428 307 q 454 283 454 290 l 453 279 q 304 124 385 194 q 226 63 271 93 q 136 33 182 33 m 113 258 q 189 340 168 283 q 200 360 189 356 q 171 335 182 351 l 140 299 q 110 258 124 279 l 113 258 z "},"f":{"ha":403,"x_min":-100,"x_max":471,"o":"m 53 -415 q -24 -383 10 -415 q -72 -311 -57 -350 q -100 -142 -100 -229 q -75 60 -100 -42 q -19 250 -50 161 q 82 518 26 386 q 140 637 103 574 q 236 722 178 700 l 247 724 q 289 712 267 724 q 311 682 311 700 l 311 681 q 292 632 308 653 q 260 588 276 611 q 211 499 232 546 q 126 289 164 394 l 114 254 q 235 268 175 260 q 322 284 271 274 q 399 321 372 294 q 413 326 404 326 q 450 314 429 326 q 471 289 471 301 l 468 282 q 394 237 443 253 q 308 213 344 221 q 190 197 251 197 q 142 200 168 197 q 208 -86 208 60 q 185 -249 208 -167 q 146 -350 174 -296 q 65 -414 118 -404 l 53 -415 m 36 -350 l 44 -347 l 63 -328 q 86 -286 76 -308 q 121 -192 108 -240 q 140 -54 140 -125 q 86 171 140 63 q 19 -164 29 8 l 19 -203 q 24 -279 19 -242 q 33 -336 28 -307 l 36 -350 z "},"g":{"ha":494,"x_min":-129,"x_max":554,"o":"m -15 -642 q -107 -601 -65 -642 q -129 -542 -129 -572 q -118 -485 -129 -514 q -96 -432 -107 -457 q 16 -237 -49 -328 q 156 -60 81 -146 l 165 -12 l 172 31 q 133 -3 156 11 q 78 -18 107 -18 q 8 6 43 -18 q -31 59 -21 28 q -42 125 -42 90 l -40 164 q 7 325 -33 242 q 135 419 47 408 l 143 419 q 257 357 213 419 q 267 378 263 368 q 281 385 272 385 q 306 376 292 385 q 322 358 319 368 q 347 332 347 347 l 346 328 q 300 106 326 215 l 368 181 q 456 278 410 231 q 480 306 468 292 q 511 322 492 319 l 517 322 q 551 301 536 322 l 554 290 q 551 283 554 286 l 538 279 l 529 281 q 494 240 508 257 q 454 196 475 217 l 360 92 l 278 0 q 269 -32 272 -15 q 263 -101 267 -67 q 238 -225 253 -162 q 171 -438 215 -329 q 46 -621 126 -547 q -15 -642 18 -642 m 71 24 q 81 35 71 25 q 99 55 90 44 q 110 67 108 65 q 169 165 147 113 q 236 307 206 236 q 197 361 228 351 l 190 363 q 151 341 169 363 q 122 301 133 319 q 61 93 65 204 l 61 83 q 63 49 61 69 q 71 24 65 28 m -51 -564 l -43 -562 q -3 -521 -22 -553 q 28 -468 17 -489 q 79 -360 58 -415 q 138 -158 117 -261 q 15 -319 71 -232 q -46 -436 -18 -375 q -61 -480 -51 -449 q -71 -536 -71 -511 q -51 -564 -71 -561 z "},"h":{"ha":511,"x_min":-51,"x_max":567,"o":"m 39 3 q -1 12 21 3 q -29 26 -22 21 q -51 63 -51 46 l -50 68 l -51 68 l 43 539 q 90 774 65 657 q 114 886 101 831 q 125 941 118 915 q 154 985 132 967 q 171 990 163 990 q 228 957 204 990 q 238 903 238 932 q 225 816 238 861 q 204 732 213 771 l 115 289 l 144 332 q 204 402 171 368 q 279 436 238 436 q 332 418 304 436 q 360 384 353 403 q 367 343 367 365 q 363 285 367 314 q 356 181 360 233 q 344 96 357 138 l 343 93 q 382 118 364 104 q 436 182 413 147 l 481 253 q 503 292 490 274 q 525 310 517 301 q 535 314 529 314 q 567 294 556 314 l 565 292 q 556 257 561 278 q 532 219 544 239 q 493 156 514 188 q 394 53 457 92 q 344 40 369 40 q 275 68 306 40 q 242 142 244 96 q 248 244 242 193 q 263 347 254 296 l 267 369 l 257 363 q 203 318 226 343 q 124 192 153 261 q 67 53 94 122 q 60 17 63 36 q 39 3 54 3 z "},"i":{"ha":338,"x_min":-21,"x_max":393,"o":"m 111 7 l 101 7 q 6 63 33 15 q -21 172 -21 111 q 21 351 -21 268 q 33 360 25 358 q 47 363 40 363 l 58 363 l 74 360 q 111 338 96 354 q 128 308 128 325 l 126 301 q 94 147 107 225 q 89 104 89 125 l 90 90 q 106 67 93 67 q 146 88 122 67 q 253 189 206 129 q 335 310 300 249 q 347 318 339 318 q 377 308 361 318 q 393 289 393 299 q 392 283 393 285 q 243 90 319 185 q 185 33 218 60 q 111 7 151 7 m 119 407 l 110 408 q 83 417 97 411 q 59 431 72 421 q 46 456 46 442 l 46 457 q 79 521 49 497 q 97 525 89 525 q 134 513 117 525 q 157 485 151 501 l 158 474 q 154 449 158 461 q 144 419 150 433 l 140 414 q 139 413 140 414 q 119 407 131 407 z "},"j":{"ha":297,"x_min":-335,"x_max":364,"o":"m -196 -662 q -301 -617 -254 -662 q -327 -576 -319 -599 q -335 -532 -335 -554 q -319 -451 -335 -490 q -218 -254 -281 -349 q -85 -75 -156 -160 q -28 183 -60 54 l 6 319 q 27 390 15 356 q 67 450 39 425 q 83 456 74 456 q 115 443 99 456 q 136 417 132 431 q 140 381 140 400 q 132 319 140 350 q 115 258 124 289 q 78 113 96 186 q 75 101 78 107 l 110 136 q 206 228 157 182 q 293 326 254 274 q 311 333 301 333 q 346 323 328 333 q 364 301 364 313 q 361 294 364 297 q 344 281 354 282 q 154 107 243 203 q 53 1 103 56 q 14 -189 32 -93 q -43 -446 -7 -318 q -78 -555 -56 -494 q -143 -647 -100 -615 q -196 -662 -167 -662 m -251 -587 q -191 -517 -219 -587 q -141 -356 -162 -447 q -106 -190 -119 -264 q -183 -306 -147 -247 q -253 -432 -221 -367 q -272 -480 -260 -447 q -285 -542 -285 -512 q -260 -586 -285 -572 l -251 -587 m 147 519 l 143 519 q 107 529 125 519 q 81 547 93 535 q 68 572 68 558 l 68 579 q 75 608 72 594 q 92 635 79 625 q 110 640 100 640 q 136 635 125 640 q 175 603 161 626 q 181 582 181 593 q 178 564 181 572 l 171 532 q 147 519 164 519 z "},"k":{"ha":435,"x_min":-75,"x_max":511,"o":"m 13 -36 q -44 -13 -14 -36 q -75 28 -75 10 q -72 36 -75 32 q -8 281 -31 154 q 36 529 14 407 l 86 786 q 110 910 97 849 q 122 966 115 944 q 163 996 128 988 l 171 997 q 210 978 194 997 q 232 924 232 951 q 224 868 232 899 q 200 744 213 807 l 150 488 l 114 283 q 174 369 144 325 q 246 442 203 413 q 256 443 250 443 q 278 437 267 443 q 289 421 289 431 l 289 414 q 265 318 289 367 q 213 231 242 269 q 158 171 190 197 q 206 128 186 150 q 227 105 218 114 q 250 96 236 96 q 278 104 261 96 q 344 165 318 126 q 433 314 399 235 q 451 324 439 324 q 490 312 469 324 q 511 285 511 300 l 510 278 q 427 132 479 210 q 296 38 375 54 l 279 36 q 178 72 224 36 q 124 121 150 96 l 106 140 q 83 135 96 136 q 38 -19 65 56 q 13 -36 29 -36 z "},"l":{"ha":333,"x_min":-37,"x_max":388,"o":"m 121 -65 q 17 -17 61 -65 q -36 92 -28 31 l -37 117 q -26 215 -37 165 q -3 311 -14 264 q 46 544 21 428 l 96 778 q 122 899 108 839 q 165 996 128 956 q 182 1001 172 1001 q 240 967 215 1001 q 246 921 246 944 q 239 858 246 890 q 225 794 232 826 l 108 269 q 74 86 82 181 l 72 68 q 86 8 72 38 q 107 -4 97 -4 q 130 3 118 -4 q 153 21 142 11 q 254 151 214 78 q 293 229 275 188 q 335 303 311 271 q 350 308 340 308 q 375 301 363 308 q 388 283 388 294 l 388 282 q 349 184 379 233 q 293 92 319 135 q 244 10 271 51 q 176 -53 218 -31 q 121 -65 149 -65 z "},"m":{"ha":711,"x_min":-57,"x_max":758,"o":"m 26 -46 l 22 -46 q -26 -31 4 -46 q -57 7 -57 -15 l -57 8 q -25 208 -46 108 q -3 307 -17 254 q 43 394 11 360 q 63 401 53 401 q 106 386 83 401 q 132 353 128 371 l 133 335 l 131 308 q 210 383 163 363 q 232 388 219 388 q 288 365 263 388 q 321 313 314 343 l 322 310 q 371 369 343 346 q 429 393 399 393 q 503 354 465 393 q 524 290 524 326 q 519 232 524 261 q 508 144 513 189 q 496 78 496 106 q 497 68 496 72 q 508 63 503 63 q 544 78 524 63 q 575 103 565 93 q 625 168 606 132 q 706 317 665 243 q 719 322 711 322 q 745 315 732 322 q 758 297 758 307 l 757 293 q 682 174 721 232 q 629 82 658 126 q 576 30 608 53 q 506 7 543 7 l 489 8 q 413 51 433 19 q 393 125 393 82 q 406 228 393 174 q 419 331 419 283 l 419 333 q 406 325 411 332 q 376 294 389 311 q 339 231 354 265 q 313 157 324 194 q 288 85 303 119 q 283 81 286 82 q 278 64 282 72 q 276 65 278 67 q 246 56 267 56 q 198 67 222 56 q 174 103 174 79 l 175 113 q 206 238 193 174 q 224 329 215 269 q 154 256 175 293 q 113 176 129 218 q 78 86 92 132 q 64 24 71 56 l 56 -26 l 54 -25 q 26 -46 54 -42 z "},"n":{"ha":497,"x_min":-65,"x_max":551,"o":"m 17 -25 q -36 -7 -7 -25 q -65 33 -65 11 l -65 39 q 33 415 -31 232 q 58 428 42 428 q 110 412 82 428 q 139 378 139 396 l 139 375 q 122 292 132 333 q 149 333 135 313 q 183 379 163 357 q 235 406 204 401 l 239 406 q 281 394 260 406 q 311 363 301 382 q 322 314 322 339 q 317 263 322 289 q 307 214 311 238 q 293 117 301 167 q 289 78 292 97 l 290 64 l 289 61 q 353 103 328 78 q 415 171 389 133 q 492 301 461 232 q 506 308 496 308 q 535 301 519 308 q 551 282 551 293 l 549 276 q 428 100 499 182 q 367 42 404 72 q 292 11 329 11 l 282 11 q 221 44 242 17 q 200 108 200 71 l 200 125 q 224 247 210 186 q 246 350 235 288 q 188 290 207 324 q 139 200 160 246 l 90 94 q 50 17 75 51 q 40 -11 46 3 q 17 -25 36 -25 z "},"o":{"ha":431,"x_min":-31,"x_max":489,"o":"m 106 3 q 26 36 63 3 q -24 115 -11 69 q -31 171 -31 142 q -1 296 -31 236 q 35 361 13 329 q 94 406 58 393 q 124 410 110 410 q 188 388 160 410 q 215 333 215 365 q 217 332 218 333 l 229 321 q 258 286 243 301 q 307 268 285 268 q 351 275 328 268 q 428 314 397 282 q 444 319 432 319 q 474 313 458 319 q 489 296 489 307 q 486 288 489 292 q 419 235 463 251 q 335 218 376 218 l 324 218 q 242 246 279 221 l 243 225 q 178 38 243 121 q 106 3 143 3 m 94 51 q 135 86 121 61 q 169 157 157 119 q 188 238 188 200 q 150 331 188 288 q 113 264 128 300 q 79 128 79 199 q 89 65 79 97 q 94 51 92 57 z "},"p":{"ha":567,"x_min":-161,"x_max":607,"o":"m -78 -622 q -130 -605 -101 -622 q -161 -567 -158 -587 l -161 -546 q -144 -408 -161 -478 q -115 -272 -128 -339 l -71 -6 q -15 260 -44 128 q 22 382 0 322 q 38 427 29 410 q 75 449 46 444 l 79 449 q 115 434 97 449 q 139 406 133 419 q 144 379 144 394 q 136 333 144 357 q 121 289 128 308 q 107 244 113 265 q 168 328 132 289 q 216 372 190 353 q 271 390 242 390 q 317 375 292 390 q 372 294 360 346 q 532 326 449 326 l 563 325 q 592 311 578 324 q 607 288 607 299 q 589 278 607 279 l 544 281 q 379 242 457 281 q 374 176 379 208 q 336 53 364 122 q 263 -69 308 -17 q 153 -122 217 -122 q 113 -117 135 -122 q 53 -81 75 -104 q 25 -169 46 -128 l 4 -287 q -50 -601 -26 -444 q -78 -622 -54 -622 m 97 -56 q 107 -53 101 -56 q 143 -31 126 -44 q 219 76 193 15 q 256 165 240 119 q 113 18 164 106 q 96 -33 96 -4 l 96 -37 q 92 -51 92 -47 q 97 -56 92 -56 m 103 113 q 160 164 131 142 q 274 246 213 210 q 278 289 278 268 q 269 336 278 317 q 209 292 238 324 q 165 238 181 261 q 104 117 128 182 q 103 113 103 115 z "},"q":{"ha":563,"x_min":-44,"x_max":611,"o":"m 182 -644 q 133 -630 160 -644 q 104 -597 107 -615 q 101 -537 101 -568 q 108 -428 101 -483 q 121 -318 114 -372 q 181 40 142 -137 q 138 4 163 18 q 85 -10 114 -10 q -17 38 26 -10 q -44 131 -44 79 q -21 261 -44 193 q 47 376 3 329 q 153 424 92 424 q 264 358 228 421 q 318 436 283 406 q 333 442 325 442 q 364 431 349 442 q 382 407 379 419 q 385 369 385 389 q 365 256 385 314 q 329 144 346 197 q 272 -107 296 19 q 250 -231 260 -168 l 308 -92 q 418 129 357 22 q 553 314 472 232 q 565 318 557 318 q 595 308 579 318 q 611 288 611 299 q 607 279 611 283 q 449 86 515 193 q 350 -121 394 -14 q 282 -277 317 -196 q 224 -442 247 -358 q 203 -628 218 -536 l 203 -629 q 182 -644 203 -646 m 75 53 l 83 54 q 124 84 103 60 q 154 122 144 108 q 196 206 182 163 q 226 294 210 250 q 218 331 226 314 q 199 347 210 347 q 169 332 185 347 q 140 300 153 317 q 68 79 68 199 l 68 64 q 75 53 68 54 z "},"r":{"ha":476,"x_min":-39,"x_max":360,"o":"m 44 -35 q -9 -17 21 -35 q -39 19 -39 0 q -19 219 -39 118 q 0 318 -12 267 q 44 404 13 369 q 64 411 51 411 q 111 394 92 411 q 131 354 131 376 q 122 292 131 324 q 177 367 147 335 q 250 400 207 400 q 322 374 283 400 q 360 307 360 349 q 352 280 360 293 q 325 267 344 267 q 276 283 303 267 q 250 317 250 299 q 256 337 253 331 q 258 346 258 343 q 256 350 258 350 q 229 331 250 350 q 190 285 208 311 q 103 78 131 189 q 72 -4 96 32 q 44 -35 72 -37 z "},"s":{"ha":479,"x_min":-10,"x_max":521,"o":"m 122 -183 q 78 -167 97 -183 q 60 -125 60 -151 q 73 -65 60 -96 q 97 -15 86 -33 q 221 118 147 63 q 179 139 211 139 q 156 136 164 139 q 131 133 147 133 q 37 166 79 133 q -10 256 -6 199 q 42 380 -10 326 q 163 433 94 433 q 246 407 210 433 q 282 346 282 381 q 250 272 282 308 q 238 268 246 268 q 216 274 228 268 q 204 289 204 281 q 219 317 210 301 q 228 350 228 332 q 217 369 228 369 q 190 357 207 369 q 108 218 108 300 l 108 210 q 93 206 93 208 l 108 207 l 144 207 q 269 157 222 207 q 478 313 372 235 q 486 315 482 315 q 509 307 497 315 q 521 292 521 299 q 518 286 521 288 q 306 126 413 207 q 292 117 300 122 q 300 64 300 92 q 277 -44 300 14 q 214 -142 254 -101 q 122 -183 174 -183 m 104 -131 q 196 -37 165 -100 q 231 69 226 13 q 144 -16 183 33 q 104 -122 104 -65 l 104 -131 z "},"t":{"ha":388,"x_min":-160,"x_max":515,"o":"m 144 -61 q 60 -32 101 -61 q 5 40 21 -4 q -14 131 -11 83 l -15 169 q 22 458 -15 307 q 99 757 58 610 q -29 739 36 746 q -90 733 -58 733 q -125 738 -104 738 q -160 767 -160 753 q -154 774 -160 771 q 4 807 -79 801 q 117 818 61 814 q 118 825 118 824 q 154 940 135 883 q 175 979 164 968 q 217 990 186 990 q 256 968 242 990 q 271 922 271 946 q 250 826 265 875 l 286 826 q 401 817 344 826 q 511 783 458 808 q 515 776 515 781 q 513 775 515 775 q 357 785 440 785 q 235 778 297 785 q 128 332 165 549 q 100 86 104 207 q 106 21 100 54 q 138 -12 113 -12 q 157 -8 146 -12 q 238 56 204 11 q 296 143 271 101 q 388 313 344 226 q 403 319 390 319 q 431 313 417 319 q 446 294 446 306 l 444 288 q 318 79 389 179 q 267 7 294 43 q 201 -49 240 -29 q 144 -61 174 -61 m -119 736 q -142 742 -128 736 l -119 736 z "},"u":{"ha":603,"x_min":-24,"x_max":660,"o":"m 93 -25 q 71 -22 83 -25 q -4 45 15 -4 q -24 146 -24 94 q -7 289 -24 208 q 61 408 10 369 q 81 413 68 413 q 122 400 100 413 q 144 371 144 388 q 115 278 138 321 q 89 181 99 231 q 81 83 82 132 l 79 56 q 81 43 79 50 q 85 28 85 28 q 100 33 85 28 q 174 100 142 46 q 226 192 207 154 q 280 290 254 239 q 317 394 306 340 q 333 408 317 410 q 369 397 349 408 q 390 374 390 386 q 381 357 388 364 l 382 333 q 376 263 382 299 q 365 190 369 226 q 363 133 365 172 q 369 85 363 107 q 394 63 375 63 q 472 110 440 74 q 532 186 504 147 q 601 317 575 247 q 615 324 607 324 q 644 315 629 324 q 660 296 660 306 l 658 290 q 519 78 599 178 q 470 29 497 49 q 408 10 443 10 q 372 15 392 10 q 276 161 275 54 q 275 174 276 165 q 232 96 256 133 q 196 44 217 72 q 149 -4 175 17 q 93 -25 124 -25 z "},"v":{"ha":438,"x_min":-19,"x_max":365,"o":"m 75 -22 q -1 24 17 -15 q -19 119 -19 64 q 7 331 -18 222 q 28 388 14 368 q 79 411 42 408 q 114 388 106 411 q 122 338 122 364 q 119 299 122 315 q 86 42 99 171 q 135 106 118 68 q 188 215 164 158 q 248 333 217 272 q 296 456 279 393 l 296 457 q 311 467 296 468 q 346 458 326 467 q 365 438 365 449 q 363 429 365 433 q 281 275 314 357 l 203 117 q 174 60 192 92 q 132 3 157 28 q 75 -22 107 -22 z "},"w":{"ha":672,"x_min":-8,"x_max":549,"o":"m 357 -4 q 280 25 315 -4 q 228 93 244 54 l 219 121 q 174 52 201 81 q 111 24 147 24 q 60 39 86 24 q 4 112 17 65 q -8 206 -8 158 q 5 317 -8 258 q 54 415 18 376 q 72 421 63 421 q 115 407 92 421 q 139 376 139 393 q 119 288 135 331 q 94 194 103 246 q 88 122 88 158 q 101 79 88 79 q 117 89 108 79 q 135 110 125 99 q 217 269 185 186 q 238 326 228 304 q 269 349 247 349 q 318 333 293 349 q 343 297 343 317 l 342 292 q 325 154 325 224 l 326 103 q 328 67 326 88 q 347 46 329 46 q 382 65 367 46 q 406 99 397 83 q 467 261 447 176 q 482 349 478 304 q 496 436 486 393 q 507 443 499 443 q 531 434 518 443 q 547 415 544 425 l 549 399 q 542 340 549 369 q 529 282 535 310 q 496 156 517 218 q 456 58 482 106 q 375 -3 429 10 l 357 -4 z "},"x":{"ha":410,"x_min":-37,"x_max":457,"o":"m 6 -112 q -21 -103 -4 -112 q -37 -76 -37 -94 l -37 -72 q 50 82 -14 17 q 8 203 22 138 q -6 328 -6 268 q 3 413 -6 372 q 25 426 8 426 q 78 408 49 426 q 110 371 107 390 q 122 179 111 275 q 188 307 160 242 q 208 369 197 339 q 247 410 218 399 q 263 390 260 403 q 265 365 265 378 q 255 315 265 340 q 235 265 244 289 q 139 97 196 172 q 158 56 146 74 q 189 39 169 39 q 233 51 208 39 q 268 72 257 63 q 319 136 299 101 q 406 293 365 215 q 419 299 411 299 q 444 292 431 299 q 457 275 457 286 l 456 271 q 388 135 429 200 q 335 47 367 88 q 204 -17 279 -17 q 88 33 140 -17 q 54 -18 69 8 q 42 -56 47 -35 q 30 -95 38 -78 q 6 -112 22 -112 z "},"y":{"ha":556,"x_min":-58,"x_max":600,"o":"m 64 -646 q -35 -607 8 -646 q -58 -542 -58 -575 q -44 -468 -58 -504 q 60 -256 -10 -354 q 213 -64 129 -158 l 233 35 q 189 -8 214 10 q 132 -25 164 -25 q 31 22 69 -21 q -14 125 -8 64 l -17 169 q -2 289 -17 226 q 47 392 13 351 q 64 399 54 399 q 110 383 85 399 q 136 351 136 367 q 117 256 132 303 q 94 157 101 210 q 90 104 90 132 l 93 74 q 102 42 96 54 q 122 29 108 29 q 198 83 157 29 q 268 203 239 136 q 317 390 281 303 q 321 413 318 403 q 336 424 324 424 l 353 422 q 390 409 371 422 q 411 381 408 396 l 413 350 q 397 228 413 290 q 367 107 382 167 q 554 297 458 206 q 563 300 558 300 q 587 292 574 300 q 600 276 600 285 q 597 269 600 272 q 346 17 468 147 q 292 -228 318 -106 q 231 -460 267 -350 q 193 -559 217 -508 q 122 -635 169 -610 q 64 -646 96 -646 m 1 -581 q 45 -555 24 -581 q 74 -517 67 -529 q 124 -399 104 -461 q 190 -162 163 -282 q 84 -301 136 -226 q 3 -451 32 -375 q -15 -529 -15 -492 q -11 -575 -15 -543 l -11 -576 q 1 -581 -4 -581 z "},"z":{"ha":507,"x_min":-128,"x_max":564,"o":"m -7 -631 q -90 -601 -50 -631 q -119 -564 -111 -586 q -128 -518 -128 -542 q -118 -454 -128 -485 q -9 -237 -85 -344 q 154 -42 67 -129 q 101 -3 132 -3 q 42 -24 71 -19 q -14 -3 11 -24 q -39 35 -39 17 q -24 51 -39 47 q 116 136 57 78 q 188 281 175 194 l 190 314 q 186 360 190 338 q 178 390 185 376 q 163 397 171 397 q 131 386 149 397 q 38 282 67 351 q 29 278 36 278 q 13 283 21 278 q -7 319 -7 301 q 25 379 -7 350 q 85 421 57 408 q 157 439 122 439 q 258 388 217 439 q 299 269 299 338 q 259 130 299 192 q 158 29 219 68 q 197 3 182 19 l 353 156 q 454 261 406 207 q 481 292 467 276 q 517 308 496 307 q 547 295 531 308 q 564 272 564 282 q 551 265 564 267 l 532 267 q 485 223 508 251 q 444 176 461 194 q 229 -35 333 72 q 258 -104 250 -67 q 267 -181 267 -142 q 219 -416 265 -300 q 76 -603 172 -532 q -7 -631 38 -631 m -57 -574 q -19 -560 -37 -574 q 13 -536 0 -547 q 133 -355 92 -461 q 174 -146 174 -249 q 169 -94 174 -121 q -69 -443 19 -249 q -84 -481 -76 -457 q -92 -528 -92 -504 q -57 -574 -92 -567 z "},"{":{"ha":636,"x_min":63,"x_max":674,"o":"m 299 -386 q 163 -328 224 -386 q 120 -256 132 -296 q 108 -172 108 -215 l 110 -144 q 153 90 118 -26 q 182 218 172 153 l 182 239 q 179 274 182 258 q 171 297 178 286 l 163 308 q 161 307 163 308 l 147 306 q 81 333 110 306 q 63 365 63 349 q 78 381 63 376 q 183 449 143 399 q 249 557 222 499 q 347 835 307 693 q 483 1019 379 956 q 582 1046 532 1046 q 663 1022 624 1046 q 674 1007 674 1014 q 661 999 674 1001 l 653 1000 q 613 1006 632 1006 q 525 965 560 1006 q 468 864 490 924 q 431 745 446 804 q 406 647 417 686 q 341 481 382 567 q 229 342 300 394 q 297 189 297 281 l 294 156 q 269 42 285 99 q 240 -71 253 -14 q 225 -200 228 -135 q 228 -229 225 -203 q 238 -281 232 -256 q 249 -307 243 -307 l 250 -307 q 265 -301 257 -301 q 300 -311 285 -301 l 310 -315 q 338 -336 321 -321 q 356 -365 356 -351 q 339 -382 356 -378 q 299 -386 319 -386 z "},"|":{"ha":474,"x_min":63,"x_max":411,"o":"m 142 -194 q 91 -178 119 -194 q 63 -139 63 -161 l 63 -135 q 189 386 122 126 q 258 644 222 515 l 292 764 q 309 822 300 797 q 353 856 318 847 l 360 856 q 393 840 379 856 q 411 794 411 815 q 399 736 411 769 l 363 607 q 293 349 326 478 q 164 -182 225 85 q 142 -194 161 -194 z "},"}":{"ha":707,"x_min":35,"x_max":644,"o":"m 125 -368 q 46 -344 83 -368 q 35 -329 35 -335 q 47 -319 35 -321 l 56 -321 q 96 -328 78 -328 q 183 -287 149 -328 q 240 -186 218 -246 q 276 -67 263 -126 q 301 31 290 -8 q 367 198 325 113 q 479 338 408 283 q 411 489 411 400 l 414 522 q 440 637 424 581 q 468 750 456 693 q 482 878 482 814 l 482 879 q 478 913 482 886 q 470 963 475 939 q 460 986 465 986 l 458 986 q 440 981 451 981 q 407 989 424 981 l 397 993 q 369 1015 386 999 q 351 1044 351 1031 q 369 1060 351 1056 q 410 1064 389 1064 q 546 1007 485 1064 q 588 933 578 974 q 599 847 599 892 l 599 824 q 556 589 590 703 q 526 460 536 526 l 525 440 q 529 406 525 422 q 538 381 532 392 l 546 371 l 560 372 q 628 346 597 372 q 644 314 644 331 q 631 297 644 304 q 526 230 565 279 q 460 121 486 181 q 360 -157 401 -15 q 225 -340 331 -278 q 125 -368 178 -368 z "},"~":{"ha":457,"x_min":63,"x_max":394,"o":"m 306 256 q 267 263 288 256 q 203 310 229 276 q 175 329 186 329 q 156 318 164 329 q 138 296 147 307 q 110 285 128 285 l 99 286 q 63 326 63 297 l 63 333 q 89 372 67 357 q 135 389 111 386 l 144 389 q 236 354 194 389 q 274 317 254 333 q 279 310 278 310 l 279 318 q 293 335 279 329 q 308 357 300 347 q 332 365 318 365 q 373 353 351 365 q 394 325 394 340 l 392 318 q 306 256 363 256 z "},"¡":{"ha":594,"x_min":0,"x_max":0,"o":""},"¢":{"ha":557,"x_min":0,"x_max":0,"o":""},"£":{"ha":844,"x_min":0,"x_max":0,"o":""},"¤":{"ha":754,"x_min":0,"x_max":0,"o":""},"¥":{"ha":701,"x_min":0,"x_max":0,"o":""},"¦":{"ha":518,"x_min":0,"x_max":0,"o":""},"§":{"ha":632,"x_min":0,"x_max":0,"o":""},"¨":{"ha":397,"x_min":0,"x_max":0,"o":""},"©":{"ha":660,"x_min":0,"x_max":0,"o":""},"«":{"ha":625,"x_min":0,"x_max":0,"o":""},"®":{"ha":660,"x_min":0,"x_max":0,"o":""},"±":{"ha":590,"x_min":0,"x_max":0,"o":""},"µ":{"ha":756,"x_min":0,"x_max":0,"o":""},"¶":{"ha":797,"x_min":0,"x_max":0,"o":""},"»":{"ha":625,"x_min":0,"x_max":0,"o":""},"¿":{"ha":746,"x_min":0,"x_max":0,"o":""},"À":{"ha":922,"x_min":0,"x_max":0,"o":""},"Á":{"ha":922,"x_min":0,"x_max":0,"o":""},"Â":{"ha":922,"x_min":0,"x_max":0,"o":""},"Ã":{"ha":922,"x_min":0,"x_max":0,"o":""},"Ä":{"ha":922,"x_min":0,"x_max":0,"o":""},"Å":{"ha":922,"x_min":0,"x_max":0,"o":""},"Æ":{"ha":1385,"x_min":0,"x_max":0,"o":""},"Ç":{"ha":654,"x_min":0,"x_max":0,"o":""},"È":{"ha":678,"x_min":0,"x_max":0,"o":""},"É":{"ha":678,"x_min":0,"x_max":0,"o":""},"Ê":{"ha":678,"x_min":0,"x_max":0,"o":""},"Ë":{"ha":678,"x_min":0,"x_max":0,"o":""},"Ì":{"ha":554,"x_min":0,"x_max":0,"o":""},"Í":{"ha":553,"x_min":0,"x_max":0,"o":""},"Î":{"ha":553,"x_min":0,"x_max":0,"o":""},"Ï":{"ha":553,"x_min":0,"x_max":0,"o":""},"Ð":{"ha":919,"x_min":0,"x_max":0,"o":""},"Ñ":{"ha":906,"x_min":0,"x_max":0,"o":""},"Ò":{"ha":808,"x_min":0,"x_max":0,"o":""},"Ó":{"ha":808,"x_min":0,"x_max":0,"o":""},"Ô":{"ha":808,"x_min":0,"x_max":0,"o":""},"Õ":{"ha":808,"x_min":0,"x_max":0,"o":""},"Ö":{"ha":808,"x_min":0,"x_max":0,"o":""},"×":{"ha":588,"x_min":0,"x_max":0,"o":""},"Ø":{"ha":917,"x_min":0,"x_max":0,"o":""},"Ù":{"ha":788,"x_min":0,"x_max":0,"o":""},"Ú":{"ha":788,"x_min":0,"x_max":0,"o":""},"Û":{"ha":788,"x_min":0,"x_max":0,"o":""},"Ü":{"ha":788,"x_min":0,"x_max":0,"o":""},"Ý":{"ha":782,"x_min":0,"x_max":0,"o":""},"Þ":{"ha":872,"x_min":0,"x_max":0,"o":""},"ß":{"ha":753,"x_min":0,"x_max":0,"o":""},"à":{"ha":565,"x_min":0,"x_max":0,"o":""},"á":{"ha":567,"x_min":0,"x_max":0,"o":""},"â":{"ha":567,"x_min":0,"x_max":0,"o":""},"ã":{"ha":565,"x_min":0,"x_max":0,"o":""},"ä":{"ha":565,"x_min":0,"x_max":0,"o":""},"å":{"ha":565,"x_min":0,"x_max":0,"o":""},"æ":{"ha":928,"x_min":0,"x_max":0,"o":""},"ç":{"ha":446,"x_min":0,"x_max":0,"o":""},"è":{"ha":379,"x_min":0,"x_max":0,"o":""},"é":{"ha":378,"x_min":0,"x_max":0,"o":""},"ê":{"ha":379,"x_min":0,"x_max":0,"o":""},"ë":{"ha":379,"x_min":0,"x_max":0,"o":""},"ì":{"ha":336,"x_min":0,"x_max":0,"o":""},"í":{"ha":336,"x_min":0,"x_max":0,"o":""},"î":{"ha":335,"x_min":0,"x_max":0,"o":""},"ï":{"ha":336,"x_min":0,"x_max":0,"o":""},"ð":{"ha":497,"x_min":0,"x_max":0,"o":""},"ñ":{"ha":393,"x_min":0,"x_max":0,"o":""},"ò":{"ha":432,"x_min":0,"x_max":0,"o":""},"ó":{"ha":431,"x_min":0,"x_max":0,"o":""},"ô":{"ha":432,"x_min":0,"x_max":0,"o":""},"õ":{"ha":431,"x_min":0,"x_max":0,"o":""},"ö":{"ha":431,"x_min":0,"x_max":0,"o":""},"÷":{"ha":125,"x_min":0,"x_max":0,"o":""},"ø":{"ha":432,"x_min":0,"x_max":0,"o":""},"ù":{"ha":603,"x_min":0,"x_max":0,"o":""},"ú":{"ha":603,"x_min":0,"x_max":0,"o":""},"û":{"ha":603,"x_min":0,"x_max":0,"o":""},"ü":{"ha":603,"x_min":0,"x_max":0,"o":""},"ý":{"ha":556,"x_min":0,"x_max":0,"o":""},"þ":{"ha":528,"x_min":0,"x_max":0,"o":""},"ÿ":{"ha":556,"x_min":0,"x_max":0,"o":""},"ı":{"ha":411,"x_min":0,"x_max":0,"o":""},"̀":{"ha":225,"x_min":0,"x_max":0,"o":""},"́":{"ha":219,"x_min":0,"x_max":0,"o":""},"̂":{"ha":310,"x_min":0,"x_max":0,"o":""},"̃":{"ha":333,"x_min":0,"x_max":0,"o":""},"̄":{"ha":338,"x_min":0,"x_max":0,"o":""},"̇":{"ha":189,"x_min":0,"x_max":0,"o":""},"̈":{"ha":290,"x_min":0,"x_max":0,"o":""},"̊":{"ha":281,"x_min":0,"x_max":0,"o":""},"̌":{"ha":274,"x_min":0,"x_max":0,"o":""},"̧":{"ha":279,"x_min":0,"x_max":0,"o":""},"–":{"ha":535,"x_min":0,"x_max":0,"o":""},"—":{"ha":679,"x_min":0,"x_max":0,"o":""},"‘":{"ha":219,"x_min":0,"x_max":0,"o":""},"’":{"ha":228,"x_min":0,"x_max":0,"o":""},"‚":{"ha":226,"x_min":0,"x_max":0,"o":""},"“":{"ha":276,"x_min":0,"x_max":0,"o":""},"”":{"ha":296,"x_min":0,"x_max":0,"o":""},"„":{"ha":294,"x_min":0,"x_max":0,"o":""},"‹":{"ha":358,"x_min":0,"x_max":0,"o":""},"›":{"ha":364,"x_min":0,"x_max":0,"o":""},"₣":{"ha":1078,"x_min":0,"x_max":0,"o":""},"₤":{"ha":801,"x_min":0,"x_max":0,"o":""},"₧":{"ha":1414,"x_min":0,"x_max":0,"o":""},"€":{"ha":908,"x_min":0,"x_max":0,"o":""},"№":{"ha":1138,"x_min":0,"x_max":0,"o":""},"™":{"ha":757,"x_min":0,"x_max":0,"o":""},"≈":{"ha":479,"x_min":0,"x_max":0,"o":""},"≤":{"ha":511,"x_min":0,"x_max":0,"o":""},"≥":{"ha":551,"x_min":0,"x_max":0,"o":""},"":{"ha":738,"x_min":-122,"x_max":839,"o":"m 492 -49 q 408 -21 449 -49 q 358 44 374 6 q 338 125 342 82 q 314 90 325 108 q 263 19 290 54 q 197 -36 236 -17 q 139 -49 168 -49 q 56 -21 96 -49 q 1 51 17 8 q -18 142 -15 94 l -19 181 q 3 394 -19 286 q 53 604 26 503 q 90 749 69 676 q -6 743 43 743 l -33 744 q -78 749 -56 744 l -81 749 l -94 753 l -104 758 l -99 757 q -122 781 -122 771 q -112 792 -122 788 q -3 818 -62 813 q 111 825 56 824 l 114 836 q 150 951 131 894 q 208 1001 161 1003 l 214 1001 q 253 978 239 1001 q 267 932 267 954 l 267 924 q 244 833 258 878 q 378 838 311 838 l 468 840 q 503 951 483 896 q 561 1001 514 1003 l 567 1001 q 606 979 592 1001 q 621 933 621 957 l 619 924 q 599 836 611 881 q 832 788 721 831 q 839 781 839 785 q 835 778 839 779 q 716 787 775 782 q 596 792 657 792 l 585 792 l 568 735 q 476 343 513 542 q 451 146 458 246 l 449 97 q 453 49 449 72 q 463 13 457 28 q 488 -1 469 -1 q 506 3 494 -1 q 586 67 553 22 q 644 154 619 113 q 736 324 694 238 q 751 331 739 331 q 780 324 765 331 q 794 306 794 317 l 793 299 q 667 90 739 190 q 616 19 643 54 q 550 -36 589 -17 q 492 -49 521 -49 m 135 -1 q 153 3 142 -1 q 233 67 200 22 q 292 154 267 113 q 336 233 315 193 q 363 421 343 326 q 406 604 383 515 q 453 786 428 696 q 353 776 403 782 l 222 761 q 215 735 218 749 q 122 343 160 542 q 99 146 107 246 l 96 97 q 100 49 96 72 q 110 13 104 28 q 135 -1 117 -1 z "},"":{"ha":658,"x_min":-32,"x_max":704,"o":"m 126 -54 q 22 -6 67 -54 q -31 104 -22 42 l -32 131 q -20 228 -32 179 q 1 322 -8 276 l 51 556 q 101 789 75 672 q 128 910 114 850 q 169 1008 135 967 q 186 1014 176 1014 q 246 979 219 1014 q 251 933 251 957 q 244 869 251 901 q 231 806 238 838 l 114 281 q 79 97 88 192 l 78 79 q 92 19 78 49 q 113 7 103 7 q 135 15 124 7 q 158 32 147 22 q 260 163 219 89 q 295 233 279 196 q 332 301 311 271 q 335 317 332 310 l 382 544 q 431 771 407 658 q 450 878 439 821 q 494 974 461 936 q 510 979 501 979 q 543 969 525 979 q 565 946 561 958 q 571 903 571 924 q 565 849 571 876 q 553 793 560 821 q 517 629 536 711 q 443 300 481 465 q 408 118 418 211 q 410 83 408 103 q 421 49 413 63 q 442 38 429 38 q 486 61 465 38 q 583 189 546 117 q 617 258 601 222 q 654 324 633 293 q 668 329 660 329 q 692 322 679 329 q 704 306 704 315 l 704 304 q 667 210 694 257 q 613 122 639 164 q 569 50 593 86 q 510 -7 546 14 q 456 -21 483 -21 q 363 18 404 -21 q 310 110 321 57 l 308 119 l 299 103 q 250 22 276 63 q 181 -42 224 -19 q 126 -54 151 -54 z "},"":{"ha":750,"x_min":-26,"x_max":807,"o":"m 444 14 q 365 47 401 14 q 315 126 329 81 q 308 182 308 156 q 338 308 308 247 l 346 324 q 285 326 313 324 q 229 332 256 328 q 247 239 247 289 q 230 135 247 188 q 182 49 213 83 q 110 14 147 14 q 31 47 67 14 q -19 126 -6 81 q -26 182 -26 156 q 3 308 -26 247 q 40 373 17 342 q 99 417 63 404 q 128 421 114 421 q 175 410 153 421 q 214 401 201 401 q 317 393 267 393 l 325 393 q 400 399 363 393 q 433 417 415 411 q 461 421 447 421 q 551 365 524 421 q 561 358 560 361 q 599 318 579 333 q 653 303 619 303 q 701 313 679 303 q 749 329 724 324 l 751 329 q 785 322 763 329 q 807 301 807 314 q 804 293 807 297 q 756 260 786 269 q 694 250 726 250 q 631 258 660 250 q 579 278 604 265 q 582 238 582 258 q 517 49 582 133 q 444 14 482 14 m 100 63 q 140 97 125 74 q 175 168 161 131 q 192 249 192 210 q 154 342 192 299 q 118 275 132 311 q 93 209 103 243 q 83 140 83 175 q 94 76 83 107 q 100 63 96 68 m 435 63 q 474 97 460 74 q 508 168 496 131 q 526 249 526 211 q 489 342 526 299 q 453 275 467 311 q 428 210 438 243 q 418 142 418 176 q 429 76 418 108 q 435 63 431 68 z "},"":{"ha":1044,"x_min":-31,"x_max":1099,"o":"m 863 -35 q 826 -28 846 -35 q 760 21 781 -11 q 740 92 740 53 q 747 143 740 117 q 786 286 765 215 q 808 374 800 322 q 751 313 778 351 q 714 254 725 275 q 650 96 676 176 q 644 79 649 88 l 643 81 q 613 69 633 69 q 565 83 590 69 q 539 118 539 96 l 542 128 q 576 253 561 189 q 599 344 588 286 q 526 269 550 308 q 482 192 501 233 q 446 101 461 147 q 425 31 436 65 l 419 7 q 392 -6 408 -6 l 376 -4 q 311 38 333 3 q 308 54 308 46 q 317 100 308 78 q 339 201 326 151 l 365 303 l 378 364 q 368 360 372 360 q 315 346 343 350 q 257 340 286 340 l 244 340 q 218 343 235 340 l 222 338 q 243 240 243 293 q 178 49 243 135 q 106 14 143 14 q 26 47 63 14 q -24 126 -11 81 q -31 179 -31 153 q 0 308 -31 246 q 37 373 14 342 q 96 417 60 404 q 125 421 111 421 q 197 390 167 421 l 203 390 q 283 406 244 390 q 363 429 322 422 l 381 431 q 434 418 408 431 q 472 379 460 406 q 482 326 482 354 q 478 281 482 304 q 524 351 497 318 q 585 399 551 385 q 606 401 596 401 q 663 381 636 401 q 696 331 689 360 q 736 376 714 356 q 774 411 753 394 q 819 428 794 428 l 826 428 q 903 361 886 418 q 908 311 908 336 q 903 253 908 282 q 890 197 897 225 q 865 108 876 154 q 856 57 858 83 l 854 36 q 919 94 900 68 q 968 163 947 125 q 1043 311 1007 238 q 1046 318 1043 315 l 1053 326 q 1061 329 1056 329 q 1085 321 1072 329 q 1099 304 1099 313 l 1099 300 q 1037 175 1064 239 q 974 51 1010 111 q 926 -9 953 17 q 863 -35 900 -35 m 96 63 q 136 97 121 74 q 171 168 157 131 q 188 250 188 211 q 151 342 188 299 q 114 275 128 311 q 89 209 99 243 q 79 140 79 175 q 90 76 79 107 q 96 63 92 68 z "},"":{"ha":849,"x_min":-25,"x_max":906,"o":"m 399 -6 q 340 10 367 -4 q 314 54 314 25 q 321 100 314 78 q 351 229 340 194 q 383 364 363 264 q 374 360 378 360 q 263 340 317 340 q 224 343 240 340 q 245 295 240 322 q 250 240 250 268 q 183 49 250 135 q 111 14 149 14 q 32 47 68 14 q -18 126 -4 81 q -25 182 -25 156 q 4 308 -25 247 q 41 373 18 342 q 100 417 64 404 q 131 421 117 421 q 203 390 175 421 l 210 390 q 296 408 256 390 q 388 431 336 425 q 440 418 415 431 q 478 379 465 406 q 488 322 488 351 q 529 383 504 351 q 592 417 554 414 q 665 374 636 417 q 675 325 675 350 q 670 274 675 300 q 661 225 665 249 q 647 128 656 178 q 643 83 646 106 l 643 72 q 707 115 682 90 q 846 313 792 194 q 860 319 850 319 q 890 313 874 319 q 906 294 906 306 l 903 288 q 782 111 851 193 q 722 52 758 83 q 646 21 685 21 q 575 52 599 25 q 551 119 551 79 q 575 258 560 192 q 599 361 588 299 q 540 301 560 333 q 450 119 489 215 q 425 7 439 63 q 415 -3 422 0 q 399 -6 407 -6 m 101 63 q 148 106 131 75 q 175 168 165 136 q 193 249 193 211 q 156 342 193 299 q 119 275 133 311 q 94 210 104 243 q 85 142 85 176 q 96 76 85 108 q 101 63 97 68 z "},"":{"ha":731,"x_min":-104,"x_max":794,"o":"m 49 -404 q -28 -372 6 -404 q -76 -300 -61 -339 q -104 -131 -104 -218 q -79 71 -104 -31 q -24 261 -54 172 q 78 529 22 397 q 136 649 99 586 q 232 733 174 711 l 243 735 q 285 724 263 735 q 307 694 307 713 l 307 693 q 288 644 304 665 q 256 599 272 622 q 207 510 228 557 q 122 300 160 407 l 115 279 q 310 364 222 294 q 392 444 356 400 q 436 496 408 461 q 443 515 440 504 l 451 531 q 450 532 451 531 q 456 540 450 539 q 506 631 475 586 q 581 692 536 676 l 590 693 q 628 683 607 693 q 649 656 649 672 l 649 654 q 634 613 647 631 q 607 576 621 596 q 563 500 583 540 q 485 306 518 406 q 469 265 476 286 q 579 278 525 271 q 658 292 613 282 q 728 326 704 303 q 742 331 733 331 q 776 319 757 331 q 794 297 794 308 q 792 292 794 296 q 725 251 769 265 q 647 228 681 236 q 539 214 593 214 l 494 217 q 556 -43 556 90 q 533 -192 556 -115 q 499 -282 524 -233 q 429 -343 475 -331 l 415 -344 q 348 -318 378 -344 q 304 -258 318 -292 q 274 -94 274 -182 q 297 88 274 -4 q 347 260 319 181 l 364 310 q 142 225 263 225 l 131 225 q 204 -75 204 79 q 181 -237 204 -156 q 142 -338 169 -285 q 61 -403 114 -392 l 49 -404 m 32 -339 q 40 -336 36 -336 l 58 -317 q 82 -274 72 -297 q 117 -181 104 -229 q 136 -43 136 -114 q 82 182 136 74 q 15 -153 25 19 l 15 -182 q 19 -268 15 -225 q 29 -324 24 -297 l 32 -339 m 399 -283 q 476 -137 457 -224 q 493 -15 493 -78 q 443 190 493 92 q 383 -108 393 46 l 383 -147 q 386 -214 383 -181 l 393 -261 q 399 -283 394 -272 z "},"":{"ha":858,"x_min":-21,"x_max":901,"o":"m 160 22 l 157 22 q 27 85 75 28 q -21 214 -21 142 q -1 300 -21 258 q 64 392 22 349 q 160 444 106 435 l 172 446 q 240 427 206 446 q 282 372 274 408 l 283 358 q 254 288 283 319 q 192 242 225 257 q 125 226 161 226 l 106 228 q 96 172 96 201 l 96 157 q 113 104 99 129 q 128 88 128 90 l 126 88 q 143 85 135 85 q 208 107 175 85 q 263 147 240 129 q 453 314 368 221 q 508 383 475 351 q 585 422 542 415 l 597 424 q 655 408 626 424 q 693 363 683 392 q 696 343 696 354 q 650 263 696 297 q 557 228 604 228 l 538 229 q 535 221 535 225 q 526 172 526 197 q 542 118 526 143 q 574 103 556 103 q 633 124 601 103 q 682 160 664 144 q 856 315 778 228 q 865 318 860 318 q 889 310 876 318 q 901 294 901 301 l 900 290 q 751 135 833 206 q 674 74 718 104 q 585 44 631 44 l 578 44 q 470 94 510 51 q 424 197 431 138 q 346 124 388 157 q 260 56 310 90 q 160 22 211 22 m 129 275 q 188 311 163 285 q 215 354 207 329 l 215 358 q 231 386 215 378 q 199 358 211 378 q 129 275 163 322 m 561 269 q 638 353 617 296 q 649 371 638 365 q 619 346 631 363 q 589 310 603 329 l 558 269 l 561 269 z "},"":{"ha":926,"x_min":-36,"x_max":826,"o":"m 47 -21 q -6 -3 24 -21 q -36 33 -36 14 q -17 233 -36 132 q 3 332 -10 281 q 47 418 15 383 q 67 425 54 425 q 114 408 94 425 q 133 368 133 390 q 125 306 133 338 q 180 381 150 349 q 253 414 210 414 q 324 388 286 414 q 363 321 363 363 q 355 294 363 307 q 328 281 347 281 q 279 297 306 281 q 253 331 253 313 q 258 351 256 344 q 261 360 261 357 q 258 364 261 364 q 232 344 253 364 q 193 299 211 325 q 106 92 133 203 q 75 10 99 46 q 47 -21 75 -24 m 492 -35 q 434 -17 465 -35 q 403 24 403 1 q 424 235 403 126 q 444 340 431 285 q 492 432 457 394 q 511 439 499 439 q 561 420 540 439 q 583 379 582 401 q 574 313 583 346 q 633 392 600 358 q 710 426 665 426 q 786 399 746 426 q 826 329 826 372 q 819 299 826 314 q 790 285 811 285 q 738 302 765 285 q 710 339 710 319 q 715 359 713 353 q 718 369 718 365 q 715 374 718 374 q 688 353 710 374 q 646 304 665 332 q 553 85 583 203 q 542 38 547 63 q 521 -3 536 14 q 492 -35 521 -36 z "}}}
